<?xml version="1.0" standalone="yes"?>

<svg version="1.1" viewBox="0.0 0.0 846.6141732283464 592.5301837270341" fill="none" stroke="none" stroke-linecap="square" stroke-miterlimit="10" xmlns="http://www.w3.org/2000/svg" xmlns:xlink="http://www.w3.org/1999/xlink"><clipPath id="p.0"><path d="m0 0l846.6142 0l0 592.5302l-846.6142 0l0 -592.5302z" clip-rule="nonzero"></path></clipPath><g clip-path="url(#p.0)"><path fill="#000000" fill-opacity="0.0" d="m0 0l846.6142 0l0 592.5302l-846.6142 0z" fill-rule="evenodd"></path><path fill="#93c47d" d="m330.51312 297.3832l0 0c0 -42.06932 44.983032 -76.17323 100.47244 -76.17323l0 0c55.48941 0 100.47244 34.103912 100.47244 76.17323l0 0c0 42.069305 -44.983032 76.17322 -100.47244 76.17322l0 0c-55.48941 0 -100.47244 -34.103912 -100.47244 -76.17322z" fill-rule="evenodd"></path><path stroke="#000000" stroke-width="1.0" stroke-linejoin="round" stroke-linecap="butt" d="m330.51312 297.3832l0 0c0 -42.06932 44.983032 -76.17323 100.47244 -76.17323l0 0c55.48941 0 100.47244 34.103912 100.47244 76.17323l0 0c0 42.069305 -44.983032 76.17322 -100.47244 76.17322l0 0c-55.48941 0 -100.47244 -34.103912 -100.47244 -76.17322z" fill-rule="evenodd"></path><path fill="#000000" d="m374.22385 311.7832l11.0 -28.640625l4.078125 0l11.71875 28.640625l-4.3125 0l-3.34375 -8.671875l-11.96875 0l-3.140625 8.671875l-4.03125 0zm8.265625 -11.765625l9.703125 0l-2.984375 -7.921875q-1.359375 -3.609375 -2.03125 -5.9375q-0.546875 2.75 -1.546875 5.46875l-3.140625 8.390625zm21.414062 11.765625l0 -28.640625l3.78125 0l0 25.265625l14.109375 0l0 3.375l-17.890625 0zm23.042969 0l0 -28.640625l3.78125 0l0 28.640625l-3.78125 0zm18.644531 0l-11.09375 -28.640625l4.109375 0l7.4375 20.8125q0.90625 2.5 1.5 4.6875q0.671875 -2.34375 1.546875 -4.6875l7.734375 -20.8125l3.875 0l-11.21875 28.640625l-3.890625 0zm18.585938 0l0 -28.640625l20.703125 0l0 3.390625l-16.921875 0l0 8.765625l15.84375 0l0 3.359375l-15.84375 0l0 9.75l17.578125 0l0 3.375l-21.359375 0z" fill-rule="nonzero"></path><path fill="#cc4125" d="m28.422573 118.879265l229.32281 0l0 102.33071l-229.32281 0z" fill-rule="evenodd"></path><path stroke="#000000" stroke-width="1.0" stroke-linejoin="round" stroke-linecap="butt" d="m28.422573 118.879265l229.32281 0l0 102.33071l-229.32281 0z" fill-rule="evenodd"></path><path fill="#000000" d="m66.47461 170.76462l0 -22.90625l10.15625 0q3.0625 0 4.65625 0.625q1.59375 0.609375 2.546875 2.171875q0.953125 1.5625 0.953125 3.453125q0 2.4375 -1.578125 4.109375q-1.578125 1.671875 -4.875 2.125q1.203125 0.578125 1.828125 1.140625q1.328125 1.21875 2.515625 3.046875l3.984375 6.234375l-3.8125 0l-3.03125 -4.765625q-1.328125 -2.0625 -2.1875 -3.15625q-0.859375 -1.09375 -1.546875 -1.53125q-0.671875 -0.4375 -1.375 -0.609375q-0.515625 -0.109375 -1.6875 -0.109375l-3.515625 0l0 10.171875l-3.03125 0zm3.03125 -12.796875l6.515625 0q2.078125 0 3.25 -0.421875q1.171875 -0.4375 1.78125 -1.375q0.609375 -0.953125 0.609375 -2.0625q0 -1.625 -1.1875 -2.671875q-1.171875 -1.046875 -3.71875 -1.046875l-7.25 0l0 7.578125zm20.09375 12.796875l0 -22.90625l16.5625 0l0 2.703125l-13.53125 0l0 7.015625l12.671875 0l0 2.6875l-12.671875 0l0 7.796875l14.0625 0l0 2.703125l-17.09375 0zm20.25 -7.359375l2.859375 -0.25q0.203125 1.71875 0.9375 2.828125q0.75 1.09375 2.3125 1.78125q1.5625 0.671875 3.515625 0.671875q1.734375 0 3.0625 -0.515625q1.328125 -0.515625 1.96875 -1.40625q0.65625 -0.90625 0.65625 -1.96875q0 -1.078125 -0.625 -1.875q-0.625 -0.8125 -2.0625 -1.359375q-0.921875 -0.359375 -4.078125 -1.109375q-3.15625 -0.765625 -4.421875 -1.4375q-1.640625 -0.859375 -2.453125 -2.125q-0.796875 -1.28125 -0.796875 -2.859375q0 -1.734375 0.984375 -3.234375q0.984375 -1.515625 2.875 -2.296875q1.890625 -0.78125 4.203125 -0.78125q2.546875 0 4.484375 0.828125q1.953125 0.8125 3.0 2.40625q1.046875 1.59375 1.125 3.609375l-2.90625 0.21875q-0.234375 -2.171875 -1.59375 -3.28125q-1.34375 -1.109375 -3.984375 -1.109375q-2.75 0 -4.015625 1.015625q-1.25 1.0 -1.25 2.421875q0 1.234375 0.890625 2.03125q0.875 0.796875 4.5625 1.640625q3.703125 0.828125 5.078125 1.453125q2.0 0.921875 2.953125 2.34375q0.953125 1.40625 0.953125 3.25q0 1.828125 -1.046875 3.453125q-1.046875 1.609375 -3.015625 2.515625q-1.953125 0.890625 -4.40625 0.890625q-3.109375 0 -5.21875 -0.90625q-2.09375 -0.90625 -3.296875 -2.71875q-1.1875 -1.828125 -1.25 -4.125zm22.375 7.359375l0 -22.90625l8.640625 0q2.28125 0 3.484375 0.21875q1.6875 0.28125 2.828125 1.078125q1.140625 0.78125 1.828125 2.203125q0.703125 1.421875 0.703125 3.125q0 2.921875 -1.859375 4.953125q-1.859375 2.015625 -6.71875 2.015625l-5.875 0l0 9.3125l-3.03125 0zm3.03125 -12.015625l5.921875 0q2.9375 0 4.171875 -1.09375q1.234375 -1.09375 1.234375 -3.078125q0 -1.4375 -0.734375 -2.453125q-0.71875 -1.03125 -1.90625 -1.359375q-0.765625 -0.203125 -2.828125 -0.203125l-5.859375 0l0 8.1875zm17.390625 0.859375q0 -5.703125 3.0625 -8.921875q3.0625 -3.234375 7.90625 -3.234375q3.171875 0 5.71875 1.515625q2.546875 1.515625 3.875 4.234375q1.34375 2.703125 1.34375 6.140625q0 3.484375 -1.40625 6.234375q-1.40625 2.75 -3.984375 4.171875q-2.578125 1.40625 -5.5625 1.40625q-3.234375 0 -5.78125 -1.5625q-2.546875 -1.5625 -3.859375 -4.265625q-1.3125 -2.703125 -1.3125 -5.71875zm3.125 0.046875q0 4.140625 2.21875 6.53125q2.234375 2.375 5.59375 2.375q3.421875 0 5.625 -2.40625q2.21875 -2.40625 2.21875 -6.828125q0 -2.796875 -0.953125 -4.875q-0.9375 -2.09375 -2.765625 -3.234375q-1.8125 -1.15625 -4.078125 -1.15625q-3.21875 0 -5.546875 2.21875q-2.3125 2.203125 -2.3125 7.375zm22.65625 11.109375l0 -22.90625l3.109375 0l12.03125 17.984375l0 -17.984375l2.90625 0l0 22.90625l-3.109375 0l-12.03125 -18.0l0 18.0l-2.90625 0zm23.140625 0l0 -22.90625l7.890625 0q2.671875 0 4.078125 0.328125q1.96875 0.453125 3.359375 1.640625q1.8125 1.53125 2.703125 3.921875q0.90625 2.375 0.90625 5.4375q0 2.609375 -0.609375 4.625q-0.609375 2.015625 -1.5625 3.34375q-0.953125 1.3125 -2.09375 2.078125q-1.125 0.75 -2.734375 1.140625q-1.59375 0.390625 -3.671875 0.390625l-8.265625 0zm3.03125 -2.703125l4.890625 0q2.265625 0 3.546875 -0.421875q1.296875 -0.421875 2.0625 -1.1875q1.078125 -1.078125 1.671875 -2.890625q0.609375 -1.828125 0.609375 -4.421875q0 -3.59375 -1.1875 -5.515625q-1.171875 -1.9375 -2.859375 -2.59375q-1.21875 -0.46875 -3.921875 -0.46875l-4.8125 0l0 17.5z" fill-rule="nonzero"></path><path fill="#000000" d="m70.728035 194.46461l0.234375 1.484375q-0.703125 0.140625 -1.265625 0.140625q-0.90625 0 -1.40625 -0.28125q-0.5 -0.296875 -0.703125 -0.75q-0.203125 -0.46875 -0.203125 -1.984375l0 -5.65625l-1.234375 0l0 -1.3125l1.234375 0l0 -2.4375l1.65625 -1.0l0 3.4375l1.6875 0l0 1.3125l-1.6875 0l0 5.75q0 0.71875 0.078125 0.921875q0.09375 0.203125 0.296875 0.328125q0.203125 0.125 0.578125 0.125q0.265625 0 0.734375 -0.078125zm0.90205383 -3.421875q0 -2.734375 1.53125 -4.0625q1.265625 -1.09375 3.09375 -1.09375q2.03125 0 3.3125 1.34375q1.296875 1.328125 1.296875 3.671875q0 1.90625 -0.578125 3.0q-0.5625 1.078125 -1.65625 1.6875q-1.078125 0.59375 -2.375 0.59375q-2.0625 0 -3.34375 -1.328125q-1.28125 -1.328125 -1.28125 -3.8125zm1.71875 0q0 1.890625 0.828125 2.828125q0.828125 0.9375 2.078125 0.9375q1.25 0 2.0625 -0.9375q0.828125 -0.953125 0.828125 -2.890625q0 -1.828125 -0.828125 -2.765625q-0.828125 -0.9375 -2.0625 -0.9375q-1.25 0 -2.078125 0.9375q-0.828125 0.9375 -0.828125 2.828125zm18.121521 3.421875l0.234375 1.484375q-0.703125 0.140625 -1.265625 0.140625q-0.90625 0 -1.40625 -0.28125q-0.5 -0.296875 -0.703125 -0.75q-0.203125 -0.46875 -0.203125 -1.984375l0 -5.65625l-1.234375 0l0 -1.3125l1.234375 0l0 -2.4375l1.65625 -1.0l0 3.4375l1.6875 0l0 1.3125l-1.6875 0l0 5.75q0 0.71875 0.078125 0.921875q0.09375 0.203125 0.296875 0.328125q0.203125 0.125 0.578125 0.125q0.265625 0 0.734375 -0.078125zm1.5270538 1.5l0 -13.59375l1.671875 0l0 4.875q1.171875 -1.359375 2.953125 -1.359375q1.09375 0 1.890625 0.4375q0.8125 0.421875 1.15625 1.1875q0.359375 0.765625 0.359375 2.203125l0 6.25l-1.671875 0l0 -6.25q0 -1.25 -0.546875 -1.8125q-0.546875 -0.578125 -1.53125 -0.578125q-0.75 0 -1.40625 0.390625q-0.640625 0.375 -0.921875 1.046875q-0.28125 0.65625 -0.28125 1.8125l0 5.390625l-1.671875 0zm17.125717 -3.171875l1.71875 0.21875q-0.40625 1.5 -1.515625 2.34375q-1.09375 0.828125 -2.8125 0.828125q-2.15625 0 -3.421875 -1.328125q-1.265625 -1.328125 -1.265625 -3.734375q0 -2.484375 1.265625 -3.859375q1.28125 -1.375 3.328125 -1.375q1.984375 0 3.234375 1.34375q1.25 1.34375 1.25 3.796875q0 0.140625 -0.015625 0.4375l-7.34375 0q0.09375 1.625 0.921875 2.484375q0.828125 0.859375 2.0625 0.859375q0.90625 0 1.546875 -0.46875q0.65625 -0.484375 1.046875 -1.546875zm-5.484375 -2.703125l5.5 0q-0.109375 -1.234375 -0.625 -1.859375q-0.796875 -0.96875 -2.078125 -0.96875q-1.140625 0 -1.9375 0.78125q-0.78125 0.765625 -0.859375 2.046875zm21.043396 2.703125l1.71875 0.21875q-0.40625 1.5 -1.515625 2.34375q-1.09375 0.828125 -2.8125 0.828125q-2.15625 0 -3.421875 -1.328125q-1.265625 -1.328125 -1.265625 -3.734375q0 -2.484375 1.265625 -3.859375q1.28125 -1.375 3.328125 -1.375q1.984375 0 3.234375 1.34375q1.25 1.34375 1.25 3.796875q0 0.140625 -0.015625 0.4375l-7.34375 0q0.09375 1.625 0.921875 2.484375q0.828125 0.859375 2.0625 0.859375q0.90625 0 1.546875 -0.46875q0.65625 -0.484375 1.046875 -1.546875zm-5.484375 -2.703125l5.5 0q-0.109375 -1.234375 -0.625 -1.859375q-0.796875 -0.96875 -2.078125 -0.96875q-1.140625 0 -1.9375 0.78125q-0.78125 0.765625 -0.859375 2.046875zm9.1101 5.875l0 -9.859375l1.5 0l0 1.40625q1.09375 -1.625 3.140625 -1.625q0.890625 0 1.640625 0.328125q0.75 0.3125 1.109375 0.84375q0.375 0.515625 0.53125 1.21875q0.09375 0.46875 0.09375 1.625l0 6.0625l-1.671875 0l0 -6.0q0 -1.015625 -0.203125 -1.515625q-0.1875 -0.515625 -0.6875 -0.8125q-0.5 -0.296875 -1.171875 -0.296875q-1.0625 0 -1.84375 0.671875q-0.765625 0.671875 -0.765625 2.578125l0 5.375l-1.671875 0zm13.110092 0l-3.75 -9.859375l1.765625 0l2.125 5.90625q0.34375 0.953125 0.625 1.984375q0.21875 -0.78125 0.625 -1.875l2.1875 -6.015625l1.71875 0l-3.734375 9.859375l-1.5625 0zm6.609375 -11.6875l0 -1.90625l1.671875 0l0 1.90625l-1.671875 0zm0 11.6875l0 -9.859375l1.671875 0l0 9.859375l-1.671875 0zm4.113571 0l0 -9.859375l1.5 0l0 1.5q0.578125 -1.046875 1.0625 -1.375q0.484375 -0.34375 1.078125 -0.34375q0.84375 0 1.71875 0.546875l-0.578125 1.546875q-0.609375 -0.359375 -1.234375 -0.359375q-0.546875 0 -0.984375 0.328125q-0.421875 0.328125 -0.609375 0.90625q-0.28125 0.890625 -0.28125 1.953125l0 5.15625l-1.671875 0zm5.603302 -4.921875q0 -2.734375 1.53125 -4.0625q1.265625 -1.09375 3.09375 -1.09375q2.03125 0 3.3125 1.34375q1.296875 1.328125 1.296875 3.671875q0 1.90625 -0.578125 3.0q-0.5625 1.078125 -1.65625 1.6875q-1.078125 0.59375 -2.375 0.59375q-2.0625 0 -3.34375 -1.328125q-1.28125 -1.328125 -1.28125 -3.8125zm1.71875 0q0 1.890625 0.828125 2.828125q0.828125 0.9375 2.078125 0.9375q1.25 0 2.0625 -0.9375q0.828125 -0.953125 0.828125 -2.890625q0 -1.828125 -0.828125 -2.765625q-0.828125 -0.9375 -2.0625 -0.9375q-1.25 0 -2.078125 0.9375q-0.828125 0.9375 -0.828125 2.828125zm9.281967 4.921875l0 -9.859375l1.5 0l0 1.40625q1.09375 -1.625 3.140625 -1.625q0.890625 0 1.640625 0.328125q0.75 0.3125 1.109375 0.84375q0.375 0.515625 0.53125 1.21875q0.09375 0.46875 0.09375 1.625l0 6.0625l-1.671875 0l0 -6.0q0 -1.015625 -0.203125 -1.515625q-0.1875 -0.515625 -0.6875 -0.8125q-0.5 -0.296875 -1.171875 -0.296875q-1.0625 0 -1.84375 0.671875q-0.765625 0.671875 -0.765625 2.578125l0 5.375l-1.671875 0zm10.375717 0l0 -9.859375l1.5 0l0 1.390625q0.453125 -0.71875 1.21875 -1.15625q0.78125 -0.453125 1.765625 -0.453125q1.09375 0 1.796875 0.453125q0.703125 0.453125 0.984375 1.28125q1.171875 -1.734375 3.046875 -1.734375q1.46875 0 2.25 0.8125q0.796875 0.8125 0.796875 2.5l0 6.765625l-1.671875 0l0 -6.203125q0 -1.0 -0.15625 -1.4375q-0.15625 -0.453125 -0.59375 -0.71875q-0.421875 -0.265625 -1.0 -0.265625q-1.03125 0 -1.71875 0.6875q-0.6875 0.6875 -0.6875 2.21875l0 5.71875l-1.671875 0l0 -6.40625q0 -1.109375 -0.40625 -1.65625q-0.40625 -0.5625 -1.34375 -0.5625q-0.703125 0 -1.3125 0.375q-0.59375 0.359375 -0.859375 1.078125q-0.265625 0.71875 -0.265625 2.0625l0 5.109375l-1.671875 0zm22.290802 -3.171875l1.71875 0.21875q-0.40625 1.5 -1.515625 2.34375q-1.09375 0.828125 -2.8125 0.828125q-2.15625 0 -3.421875 -1.328125q-1.265625 -1.328125 -1.265625 -3.734375q0 -2.484375 1.265625 -3.859375q1.28125 -1.375 3.328125 -1.375q1.984375 0 3.234375 1.34375q1.25 1.34375 1.25 3.796875q0 0.140625 -0.015625 0.4375l-7.34375 0q0.09375 1.625 0.921875 2.484375q0.828125 0.859375 2.0625 0.859375q0.90625 0 1.546875 -0.46875q0.65625 -0.484375 1.046875 -1.546875zm-5.484375 -2.703125l5.5 0q-0.109375 -1.234375 -0.625 -1.859375q-0.796875 -0.96875 -2.078125 -0.96875q-1.140625 0 -1.9375 0.78125q-0.78125 0.765625 -0.859375 2.046875zm9.110092 5.875l0 -9.859375l1.5 0l0 1.40625q1.09375 -1.625 3.140625 -1.625q0.890625 0 1.640625 0.328125q0.75 0.3125 1.109375 0.84375q0.375 0.515625 0.53125 1.21875q0.09375 0.46875 0.09375 1.625l0 6.0625l-1.671875 0l0 -6.0q0 -1.015625 -0.203125 -1.515625q-0.1875 -0.515625 -0.6875 -0.8125q-0.5 -0.296875 -1.171875 -0.296875q-1.0625 0 -1.84375 0.671875q-0.765625 0.671875 -0.765625 2.578125l0 5.375l-1.671875 0zm14.031967 -1.5l0.234375 1.484375q-0.703125 0.140625 -1.265625 0.140625q-0.90625 0 -1.40625 -0.28125q-0.5 -0.296875 -0.703125 -0.75q-0.203125 -0.46875 -0.203125 -1.984375l0 -5.65625l-1.234375 0l0 -1.3125l1.234375 0l0 -2.4375l1.65625 -1.0l0 3.4375l1.6875 0l0 1.3125l-1.6875 0l0 5.75q0 0.71875 0.078125 0.921875q0.09375 0.203125 0.296875 0.328125q0.203125 0.125 0.578125 0.125q0.265625 0 0.734375 -0.078125z" fill-rule="nonzero"></path><path fill="#9900ff" d="m164.60104 475.88715l229.32285 0l0 102.33069l-229.32285 0z" fill-rule="evenodd"></path><path stroke="#000000" stroke-width="1.0" stroke-linejoin="round" stroke-linecap="butt" d="m164.60104 475.88715l229.32285 0l0 102.33069l-229.32285 0z" fill-rule="evenodd"></path><path fill="#000000" d="m176.73122 516.7725l0 -22.90628l4.5625 0l5.421875 16.21875q0.75 2.2656555 1.09375 3.3906555q0.390625 -1.25 1.21875 -3.6719055l5.484375 -15.9375l4.078125 0l0 22.90628l-2.921875 0l0 -19.171906l-6.65625 19.171906l-2.734375 0l-6.625 -19.50003l0 19.50003l-2.921875 0zm26.8125 0l0 -22.90628l16.5625 0l0 2.703125l-13.53125 0l0 7.015625l12.671875 0l0 2.6875l-12.671875 0l0 7.7969055l14.0625 0l0 2.703125l-17.09375 0zm27.109375 0l0 -20.203156l-7.546875 0l0 -2.703125l18.15625 0l0 2.703125l-7.578125 0l0 20.203156l-3.03125 0zm11.203125 0l8.796875 -22.90628l3.265625 0l9.374985 22.90628l-3.453125 0l-2.671875 -6.9375305l-9.57811 0l-2.515625 6.9375305l-3.21875 0zm6.609375 -9.4062805l7.7656097 0l-2.3906097 -6.34375q-1.09375 -2.890625 -1.625 -4.75q-0.4375 2.203125 -1.234375 4.375l-2.515625 6.71875zm17.124985 9.4062805l0 -22.90628l8.59375 0q2.625 0 4.203125 0.703125q1.59375 0.6875 2.484375 2.140625q0.90625 1.4375 0.90625 3.015625q0 1.46875 -0.796875 2.765625q-0.796875 1.296875 -2.40625 2.09375q2.078125 0.609375 3.1875 2.078125q1.125 1.46875 1.125 3.46875q0 1.609375 -0.6875 3.0000305q-0.671875 1.375 -1.671875 2.125q-1.0 0.75 -2.515625 1.140625q-1.5 0.375 -3.6875 0.375l-8.734375 0zm3.03125 -13.2812805l4.953125 0q2.015625 0 2.890625 -0.265625q1.15625 -0.34375 1.734375 -1.140625q0.59375 -0.796875 0.59375 -2.0q0 -1.140625 -0.546875 -2.0q-0.546875 -0.875 -1.5625 -1.1875q-1.015625 -0.328125 -3.484375 -0.328125l-4.578125 0l0 6.921875zm0 10.5781555l5.703125 0q1.46875 0 2.0625 -0.109375q1.046875 -0.1875 1.75 -0.625q0.703125 -0.4375 1.15625 -1.265625q0.453125 -0.8437805 0.453125 -1.9375305q0 -1.28125 -0.65625 -2.21875q-0.65625 -0.953125 -1.828125 -1.328125q-1.15625 -0.390625 -3.34375 -0.390625l-5.296875 0l0 7.8750305zm17.515625 -8.4531555q0 -5.703125 3.0625 -8.921875q3.0625 -3.234375 7.90625 -3.234375q3.171875 0 5.71875 1.515625q2.546875 1.515625 3.875 4.234375q1.34375 2.703125 1.34375 6.140625q0 3.484375 -1.40625 6.234375q-1.40625 2.7500305 -3.984375 4.1719055q-2.578125 1.40625 -5.5625 1.40625q-3.234375 0 -5.78125 -1.5625q-2.546875 -1.5625 -3.859375 -4.2656555q-1.3125 -2.703125 -1.3125 -5.71875zm3.125 0.046875q0 4.140625 2.21875 6.5312805q2.234375 2.375 5.59375 2.375q3.421875 0 5.625 -2.40625q2.21875 -2.4062805 2.21875 -6.8281555q0 -2.796875 -0.953125 -4.875q-0.9375 -2.09375 -2.765625 -3.234375q-1.8125 -1.15625 -4.078125 -1.15625q-3.21875 0 -5.546875 2.21875q-2.3125 2.203125 -2.3125 7.375zm22.5625 11.1094055l0 -22.90628l3.03125 0l0 20.203156l11.28125 0l0 2.703125l-14.3125 0zm18.4375 0l0 -22.90628l3.03125 0l0 22.90628l-3.03125 0zm7.34375 -7.3594055l2.859375 -0.25q0.203125 1.71875 0.9375 2.828125q0.75 1.0937805 2.3125 1.7812805q1.5625 0.671875 3.515625 0.671875q1.734375 0 3.0625 -0.515625q1.328125 -0.515625 1.96875 -1.40625q0.65625 -0.9062805 0.65625 -1.9687805q0 -1.078125 -0.625 -1.875q-0.625 -0.8125 -2.0625 -1.359375q-0.921875 -0.359375 -4.078125 -1.109375q-3.15625 -0.765625 -4.421875 -1.4375q-1.640625 -0.859375 -2.453125 -2.125q-0.796875 -1.28125 -0.796875 -2.859375q0 -1.734375 0.984375 -3.234375q0.984375 -1.515625 2.875 -2.296875q1.890625 -0.78125 4.203125 -0.78125q2.546875 0 4.484375 0.828125q1.953125 0.8125 3.0 2.40625q1.046875 1.59375 1.125 3.609375l-2.90625 0.21875q-0.234375 -2.171875 -1.59375 -3.28125q-1.34375 -1.109375 -3.984375 -1.109375q-2.75 0 -4.015625 1.015625q-1.25 1.0 -1.25 2.421875q0 1.234375 0.890625 2.03125q0.875 0.796875 4.5625 1.640625q3.703125 0.828125 5.078125 1.453125q2.0 0.921875 2.953125 2.34375q0.953125 1.40625 0.953125 3.25q0 1.8281555 -1.046875 3.4531555q-1.046875 1.609375 -3.015625 2.515625q-1.953125 0.890625 -4.40625 0.890625q-3.109375 0 -5.21875 -0.90625q-2.09375 -0.90625 -3.296875 -2.71875q-1.1875 -1.8281555 -1.25 -4.1250305zm22.28125 7.3594055l0 -22.90628l4.5625 0l5.421875 16.21875q0.75 2.2656555 1.09375 3.3906555q0.390625 -1.25 1.21875 -3.6719055l5.484375 -15.9375l4.078125 0l0 22.90628l-2.921875 0l0 -19.171906l-6.65625 19.171906l-2.734375 0l-6.625 -19.50003l0 19.50003l-2.921875 0z" fill-rule="nonzero"></path><path fill="#000000" d="m237.49272 538.8006l1.71875 0.21875q-0.40625 1.5 -1.515625 2.34375q-1.09375 0.828125 -2.8125 0.828125q-2.15625 0 -3.421875 -1.328125q-1.265625 -1.328125 -1.265625 -3.734375q0 -2.484375 1.265625 -3.859375q1.28125 -1.375 3.328125 -1.375q1.984375 0 3.234375 1.34375q1.25 1.34375 1.25 3.796875q0 0.140625 -0.015625 0.4375l-7.34375 0q0.09375 1.625 0.921875 2.484375q0.828125 0.859375 2.0625 0.859375q0.90625 0 1.546875 -0.46875q0.65625 -0.484375 1.046875 -1.546875zm-5.484375 -2.703125l5.5 0q-0.109375 -1.234375 -0.625 -1.859375q-0.796875 -0.96875 -2.078125 -0.96875q-1.140625 0 -1.9375 0.78125q-0.78125 0.765625 -0.859375 2.046875zm9.110092 5.875l0 -9.859375l1.5 0l0 1.40625q1.09375 -1.625 3.140625 -1.625q0.890625 0 1.640625 0.328125q0.75 0.3125 1.109375 0.84375q0.375 0.515625 0.53125 1.21875q0.09375 0.46875 0.09375 1.625l0 6.0625l-1.671875 0l0 -6.0q0 -1.015625 -0.203125 -1.515625q-0.1875 -0.515625 -0.6875 -0.8125q-0.5 -0.296875 -1.171875 -0.296875q-1.0625 0 -1.84375 0.671875q-0.765625 0.671875 -0.765625 2.578125l0 5.375l-1.671875 0zm17.125732 -3.171875l1.71875 0.21875q-0.40625 1.5 -1.515625 2.34375q-1.09375 0.828125 -2.8125153 0.828125q-2.15625 0 -3.421875 -1.328125q-1.265625 -1.328125 -1.265625 -3.734375q0 -2.484375 1.265625 -3.859375q1.28125 -1.375 3.328125 -1.375q1.9843903 0 3.2343903 1.34375q1.25 1.34375 1.25 3.796875q0 0.140625 -0.015625 0.4375l-7.3437653 0q0.09375 1.625 0.921875 2.484375q0.828125 0.859375 2.0625 0.859375q0.90626526 0 1.5468903 -0.46875q0.65625 -0.484375 1.046875 -1.546875zm-5.4843903 -2.703125l5.5000153 0q-0.109375 -1.234375 -0.625 -1.859375q-0.796875 -0.96875 -2.0781403 -0.96875q-1.140625 0 -1.9375 0.78125q-0.78125 0.765625 -0.859375 2.046875zm9.094467 5.875l0 -9.859375l1.5 0l0 1.5q0.578125 -1.046875 1.0625 -1.375q0.484375 -0.34375 1.078125 -0.34375q0.84375 0 1.71875 0.546875l-0.578125 1.546875q-0.609375 -0.359375 -1.234375 -0.359375q-0.546875 0 -0.984375 0.328125q-0.421875 0.328125 -0.609375 0.90625q-0.28125 0.890625 -0.28125 1.953125l0 5.15625l-1.671875 0zm5.931427 0.8125l1.609375 0.25q0.109375 0.75 0.578125 1.09375q0.609375 0.453125 1.6875 0.453125q1.171875 0 1.796875 -0.46875q0.625 -0.453125 0.859375 -1.28125q0.125 -0.515625 0.109375 -2.15625q-1.09375 1.296875 -2.71875 1.296875q-2.03125 0 -3.15625 -1.46875q-1.109375 -1.46875 -1.109375 -3.515625q0 -1.40625 0.515625 -2.59375q0.515625 -1.203125 1.484375 -1.84375q0.96875 -0.65625 2.265625 -0.65625q1.75 0 2.875 1.40625l0 -1.1875l1.546875 0l0 8.515625q0 2.3125 -0.46875 3.265625q-0.46875 0.96875 -1.484375 1.515625q-1.015625 0.5625 -2.5 0.5625q-1.765625 0 -2.859375 -0.796875q-1.078125 -0.796875 -1.03125 -2.390625zm1.375 -5.921875q0 1.953125 0.765625 2.84375q0.78125 0.890625 1.9375 0.890625q1.140625 0 1.921875 -0.890625q0.78125 -0.890625 0.78125 -2.78125q0 -1.8125 -0.8125 -2.71875q-0.796875 -0.921875 -1.921875 -0.921875q-1.109375 0 -1.890625 0.90625q-0.78125 0.890625 -0.78125 2.671875zm9.219482 8.90625l-0.171875 -1.5625q0.546875 0.140625 0.953125 0.140625q0.546875 0 0.875 -0.1875q0.34375 -0.1875 0.5625 -0.515625q0.15625 -0.25 0.5 -1.25q0.046875 -0.140625 0.15625 -0.40625l-3.734375 -9.875l1.796875 0l2.046875 5.71875q0.40625 1.078125 0.71875 2.28125q0.28125 -1.15625 0.6875 -2.25l2.09375 -5.75l1.671875 0l-3.75 10.03125q-0.59375 1.625 -0.9375 2.234375q-0.4375 0.828125 -1.015625 1.203125q-0.578125 0.390625 -1.375 0.390625q-0.484375 0 -1.078125 -0.203125zm14.995789 -3.796875l0 -8.546875l-1.484375 0l0 -1.3125l1.484375 0l0 -1.046875q0 -0.984375 0.171875 -1.46875q0.234375 -0.65625 0.84375 -1.046875q0.609375 -0.40625 1.703125 -0.40625q0.703125 0 1.5625 0.15625l-0.25 1.46875q-0.515625 -0.09375 -0.984375 -0.09375q-0.765625 0 -1.078125 0.328125q-0.3125 0.3125 -0.3125 1.203125l0 0.90625l1.921875 0l0 1.3125l-1.921875 0l0 8.546875l-1.65625 0zm4.761444 0l0 -9.859375l1.5 0l0 1.5q0.578125 -1.046875 1.0625 -1.375q0.484375 -0.34375 1.078125 -0.34375q0.84375 0 1.71875 0.546875l-0.578125 1.546875q-0.609375 -0.359375 -1.234375 -0.359375q-0.546875 0 -0.984375 0.328125q-0.421875 0.328125 -0.609375 0.90625q-0.28125 0.890625 -0.28125 1.953125l0 5.15625l-1.671875 0zm5.603302 -4.921875q0 -2.734375 1.53125 -4.0625q1.265625 -1.09375 3.09375 -1.09375q2.03125 0 3.3125 1.34375q1.296875 1.328125 1.296875 3.671875q0 1.90625 -0.578125 3.0q-0.5625 1.078125 -1.65625 1.6875q-1.078125 0.59375 -2.375 0.59375q-2.0625 0 -3.34375 -1.328125q-1.28125 -1.328125 -1.28125 -3.8125zm1.71875 0q0 1.890625 0.828125 2.828125q0.828125 0.9375 2.078125 0.9375q1.25 0 2.0625 -0.9375q0.828125 -0.953125 0.828125 -2.890625q0 -1.828125 -0.828125 -2.765625q-0.828125 -0.9375 -2.0625 -0.9375q-1.25 0 -2.078125 0.9375q-0.828125 0.9375 -0.828125 2.828125zm9.281952 4.921875l0 -9.859375l1.5 0l0 1.390625q0.453125 -0.71875 1.21875 -1.15625q0.78125 -0.453125 1.765625 -0.453125q1.09375 0 1.796875 0.453125q0.703125 0.453125 0.984375 1.28125q1.171875 -1.734375 3.046875 -1.734375q1.46875 0 2.25 0.8125q0.796875 0.8125 0.796875 2.5l0 6.765625l-1.671875 0l0 -6.203125q0 -1.0 -0.15625 -1.4375q-0.15625 -0.453125 -0.59375 -0.71875q-0.421875 -0.265625 -1.0 -0.265625q-1.03125 0 -1.71875 0.6875q-0.6875 0.6875 -0.6875 2.21875l0 5.71875l-1.671875 0l0 -6.40625q0 -1.109375 -0.40625 -1.65625q-0.40625 -0.5625 -1.34375 -0.5625q-0.703125 0 -1.3125 0.375q-0.59375 0.359375 -0.859375 1.078125q-0.265625 0.71875 -0.265625 2.0625l0 5.109375l-1.671875 0z" fill-rule="nonzero"></path><path fill="#000000" d="m212.29308 560.3631l1.640625 0.21875q-0.265625 1.6875 -1.375 2.65625q-1.109375 0.953125 -2.734375 0.953125q-2.015625 0 -3.25 -1.3125q-1.21875 -1.328125 -1.21875 -3.796875q0 -1.59375 0.515625 -2.78125q0.53125 -1.203125 1.609375 -1.796875q1.09375 -0.609375 2.359375 -0.609375q1.609375 0 2.625 0.8125q1.015625 0.8125 1.3125 2.3125l-1.625 0.25q-0.234375 -1.0 -0.828125 -1.5q-0.59375 -0.5 -1.421875 -0.5q-1.265625 0 -2.0625 0.90625q-0.78125 0.90625 -0.78125 2.859375q0 1.984375 0.765625 2.890625q0.765625 0.890625 1.984375 0.890625q0.984375 0 1.640625 -0.59375q0.65625 -0.609375 0.84375 -1.859375zm2.890625 3.609375l0 -13.59375l1.671875 0l0 4.875q1.171875 -1.359375 2.953125 -1.359375q1.09375 0 1.890625 0.4375q0.8125 0.421875 1.15625 1.1875q0.359375 0.765625 0.359375 2.203125l0 6.25l-1.671875 0l0 -6.25q0 -1.25 -0.546875 -1.8125q-0.546875 -0.578125 -1.53125 -0.578125q-0.75 0 -1.40625 0.390625q-0.640625 0.375 -0.921875 1.046875q-0.28125 0.65625 -0.28125 1.8125l0 5.390625l-1.671875 0zm17.125717 -3.171875l1.71875 0.21875q-0.40625 1.5 -1.515625 2.34375q-1.09375 0.828125 -2.8125 0.828125q-2.15625 0 -3.421875 -1.328125q-1.265625 -1.328125 -1.265625 -3.734375q0 -2.484375 1.265625 -3.859375q1.28125 -1.375 3.328125 -1.375q1.984375 0 3.234375 1.34375q1.25 1.34375 1.25 3.796875q0 0.140625 -0.015625 0.4375l-7.34375 0q0.09375 1.625 0.921875 2.484375q0.828125 0.859375 2.0625 0.859375q0.90625 0 1.546875 -0.46875q0.65625 -0.484375 1.046875 -1.546875zm-5.484375 -2.703125l5.5 0q-0.109375 -1.234375 -0.625 -1.859375q-0.796875 -0.96875 -2.078125 -0.96875q-1.140625 0 -1.9375 0.78125q-0.78125 0.765625 -0.859375 2.046875zm9.110092 5.875l0 -9.859375l1.5 0l0 1.390625q0.453125 -0.71875 1.21875 -1.15625q0.78125 -0.453125 1.765625 -0.453125q1.09375 0 1.796875 0.453125q0.703125 0.453125 0.984375 1.28125q1.171875 -1.734375 3.046875 -1.734375q1.46875 0 2.25 0.8125q0.796875 0.8125 0.796875 2.5l0 6.765625l-1.671875 0l0 -6.203125q0 -1.0 -0.15625 -1.4375q-0.15625 -0.453125 -0.59375 -0.71875q-0.421875 -0.265625 -1.0 -0.265625q-1.03125 0 -1.71875 0.6875q-0.6875 0.6875 -0.6875 2.21875l0 5.71875l-1.671875 0l0 -6.40625q0 -1.109375 -0.40625 -1.65625q-0.40625 -0.5625 -1.34375 -0.5625q-0.703125 0 -1.3125 0.375q-0.59375 0.359375 -0.859375 1.078125q-0.265625 0.71875 -0.265625 2.0625l0 5.109375l-1.671875 0zm15.556427 -11.6875l0 -1.90625l1.671875 0l0 1.90625l-1.671875 0zm0 11.6875l0 -9.859375l1.671875 0l0 9.859375l-1.671875 0zm10.566696 -3.609375l1.640625 0.21875q-0.265625 1.6875 -1.375 2.65625q-1.109375 0.953125 -2.734375 0.953125q-2.015625 0 -3.25 -1.3125q-1.21875 -1.328125 -1.21875 -3.796875q0 -1.59375 0.515625 -2.78125q0.53125 -1.203125 1.609375 -1.796875q1.09375 -0.609375 2.359375 -0.609375q1.609375 0 2.625 0.8125q1.015625 0.8125 1.3125 2.3125l-1.625 0.25q-0.234375 -1.0 -0.828125 -1.5q-0.59375 -0.5 -1.421875 -0.5q-1.265625 0 -2.0625 0.90625q-0.78125 0.90625 -0.78125 2.859375q0 1.984375 0.765625 2.890625q0.765625 0.890625 1.984375 0.890625q0.984375 0 1.640625 -0.59375q0.65625 -0.609375 0.84375 -1.859375zm9.328125 2.390625q-0.9375 0.796875 -1.796875 1.125q-0.859375 0.3125 -1.84375 0.3125q-1.609375 0 -2.484375 -0.78125q-0.875 -0.796875 -0.875 -2.03125q0 -0.734375 0.328125 -1.328125q0.328125 -0.59375 0.859375 -0.953125q0.53125 -0.359375 1.203125 -0.546875q0.5 -0.140625 1.484375 -0.25q2.03125 -0.25 2.984375 -0.578125q0 -0.34375 0 -0.4375q0 -1.015625 -0.46875 -1.4375q-0.640625 -0.5625 -1.90625 -0.5625q-1.171875 0 -1.734375 0.40625q-0.5625 0.40625 -0.828125 1.46875l-1.640625 -0.234375q0.234375 -1.046875 0.734375 -1.6875q0.515625 -0.640625 1.46875 -0.984375q0.96875 -0.359375 2.25 -0.359375q1.265625 0 2.046875 0.296875q0.78125 0.296875 1.15625 0.75q0.375 0.453125 0.515625 1.140625q0.09375 0.421875 0.09375 1.53125l0 2.234375q0 2.328125 0.09375 2.953125q0.109375 0.609375 0.4375 1.171875l-1.75 0q-0.265625 -0.515625 -0.328125 -1.21875zm-0.140625 -3.71875q-0.90625 0.359375 -2.734375 0.625q-1.03125 0.140625 -1.453125 0.328125q-0.421875 0.1875 -0.65625 0.546875q-0.234375 0.359375 -0.234375 0.796875q0 0.671875 0.5 1.125q0.515625 0.4375 1.484375 0.4375q0.96875 0 1.71875 -0.421875q0.75 -0.4375 1.109375 -1.15625q0.265625 -0.578125 0.265625 -1.671875l0 -0.609375zm4.0476074 4.9375l0 -13.59375l1.671875 0l0 13.59375l-1.671875 0zm9.34375 0l0 -9.859375l1.5 0l0 1.5q0.578125 -1.046875 1.0625 -1.375q0.484375 -0.34375 1.078125 -0.34375q0.84375 0 1.71875 0.546875l-0.578125 1.546875q-0.609375 -0.359375 -1.234375 -0.359375q-0.546875 0 -0.984375 0.328125q-0.421875 0.328125 -0.609375 0.90625q-0.28125 0.890625 -0.28125 1.953125l0 5.15625l-1.671875 0zm12.978302 -3.171875l1.71875 0.21875q-0.40625 1.5 -1.515625 2.34375q-1.09375 0.828125 -2.8125 0.828125q-2.15625 0 -3.421875 -1.328125q-1.265625 -1.328125 -1.265625 -3.734375q0 -2.484375 1.265625 -3.859375q1.28125 -1.375 3.328125 -1.375q1.984375 0 3.234375 1.34375q1.25 1.34375 1.25 3.796875q0 0.140625 -0.015625 0.4375l-7.34375 0q0.09375 1.625 0.921875 2.484375q0.828125 0.859375 2.0625 0.859375q0.90625 0 1.546875 -0.46875q0.65625 -0.484375 1.046875 -1.546875zm-5.484375 -2.703125l5.5 0q-0.109375 -1.234375 -0.625 -1.859375q-0.796875 -0.96875 -2.078125 -0.96875q-1.140625 0 -1.9375 0.78125q-0.78125 0.765625 -0.859375 2.046875zm15.547577 4.65625q-0.9375 0.796875 -1.796875 1.125q-0.859375 0.3125 -1.84375 0.3125q-1.609375 0 -2.484375 -0.78125q-0.875 -0.796875 -0.875 -2.03125q0 -0.734375 0.328125 -1.328125q0.328125 -0.59375 0.859375 -0.953125q0.53125 -0.359375 1.203125 -0.546875q0.5 -0.140625 1.484375 -0.25q2.03125 -0.25 2.984375 -0.578125q0 -0.34375 0 -0.4375q0 -1.015625 -0.46875 -1.4375q-0.640625 -0.5625 -1.90625 -0.5625q-1.171875 0 -1.734375 0.40625q-0.5625 0.40625 -0.828125 1.46875l-1.640625 -0.234375q0.234375 -1.046875 0.734375 -1.6875q0.515625 -0.640625 1.46875 -0.984375q0.96875 -0.359375 2.25 -0.359375q1.265625 0 2.046875 0.296875q0.78125 0.296875 1.15625 0.75q0.375 0.453125 0.515625 1.140625q0.09375 0.421875 0.09375 1.53125l0 2.234375q0 2.328125 0.09375 2.953125q0.109375 0.609375 0.4375 1.171875l-1.75 0q-0.265625 -0.515625 -0.328125 -1.21875zm-0.140625 -3.71875q-0.90625 0.359375 -2.734375 0.625q-1.03125 0.140625 -1.453125 0.328125q-0.421875 0.1875 -0.65625 0.546875q-0.234375 0.359375 -0.234375 0.796875q0 0.671875 0.5 1.125q0.515625 0.4375 1.484375 0.4375q0.96875 0 1.71875 -0.421875q0.75 -0.4375 1.109375 -1.15625q0.265625 -0.578125 0.265625 -1.671875l0 -0.609375zm10.516357 1.328125l1.640625 0.21875q-0.265625 1.6875 -1.375 2.65625q-1.109375 0.953125 -2.734375 0.953125q-2.015625 0 -3.25 -1.3125q-1.21875 -1.328125 -1.21875 -3.796875q0 -1.59375 0.515625 -2.78125q0.53125 -1.203125 1.609375 -1.796875q1.09375 -0.609375 2.359375 -0.609375q1.609375 0 2.625 0.8125q1.015625 0.8125 1.3125 2.3125l-1.625 0.25q-0.234375 -1.0 -0.828125 -1.5q-0.59375 -0.5 -1.421875 -0.5q-1.265625 0 -2.0625 0.90625q-0.78125 0.90625 -0.78125 2.859375q0 1.984375 0.765625 2.890625q0.765625 0.890625 1.984375 0.890625q0.984375 0 1.640625 -0.59375q0.65625 -0.609375 0.84375 -1.859375zm6.546875 2.109375l0.234375 1.484375q-0.703125 0.140625 -1.265625 0.140625q-0.90625 0 -1.40625 -0.28125q-0.5 -0.296875 -0.703125 -0.75q-0.203125 -0.46875 -0.203125 -1.984375l0 -5.65625l-1.234375 0l0 -1.3125l1.234375 0l0 -2.4375l1.65625 -1.0l0 3.4375l1.6875 0l0 1.3125l-1.6875 0l0 5.75q0 0.71875 0.078125 0.921875q0.09375 0.203125 0.296875 0.328125q0.203125 0.125 0.578125 0.125q0.265625 0 0.734375 -0.078125zm1.5426636 -10.1875l0 -1.90625l1.671875 0l0 1.90625l-1.671875 0zm0 11.6875l0 -9.859375l1.671875 0l0 9.859375l-1.671875 0zm3.5042114 -4.921875q0 -2.734375 1.53125 -4.0625q1.265625 -1.09375 3.09375 -1.09375q2.03125 0 3.3125 1.34375q1.296875 1.328125 1.296875 3.671875q0 1.90625 -0.578125 3.0q-0.5625 1.078125 -1.65625 1.6875q-1.078125 0.59375 -2.375 0.59375q-2.0625 0 -3.34375 -1.328125q-1.28125 -1.328125 -1.28125 -3.8125zm1.71875 0q0 1.890625 0.828125 2.828125q0.828125 0.9375 2.078125 0.9375q1.25 0 2.0625 -0.9375q0.828125 -0.953125 0.828125 -2.890625q0 -1.828125 -0.828125 -2.765625q-0.828125 -0.9375 -2.0625 -0.9375q-1.25 0 -2.078125 0.9375q-0.828125 0.9375 -0.828125 2.828125zm9.281952 4.921875l0 -9.859375l1.5 0l0 1.40625q1.09375 -1.625 3.140625 -1.625q0.890625 0 1.640625 0.328125q0.75 0.3125 1.109375 0.84375q0.375 0.515625 0.53125 1.21875q0.09375 0.46875 0.09375 1.625l0 6.0625l-1.671875 0l0 -6.0q0 -1.015625 -0.203125 -1.515625q-0.1875 -0.515625 -0.6875 -0.8125q-0.5 -0.296875 -1.171875 -0.296875q-1.0625 0 -1.84375 0.671875q-0.765625 0.671875 -0.765625 2.578125l0 5.375l-1.671875 0zm9.703857 -2.9375l1.65625 -0.265625q0.140625 1.0 0.765625 1.53125q0.640625 0.515625 1.78125 0.515625q1.15625 0 1.703125 -0.46875q0.5625 -0.46875 0.5625 -1.09375q0 -0.5625 -0.484375 -0.890625q-0.34375 -0.21875 -1.703125 -0.5625q-1.84375 -0.46875 -2.5625 -0.796875q-0.703125 -0.34375 -1.078125 -0.9375q-0.359375 -0.609375 -0.359375 -1.328125q0 -0.65625 0.296875 -1.21875q0.3125 -0.5625 0.828125 -0.9375q0.390625 -0.28125 1.0625 -0.484375q0.671875 -0.203125 1.4375 -0.203125q1.171875 0 2.046875 0.34375q0.875 0.328125 1.28125 0.90625q0.421875 0.5625 0.578125 1.515625l-1.625 0.21875q-0.109375 -0.75 -0.65625 -1.171875q-0.53125 -0.4375 -1.5 -0.4375q-1.15625 0 -1.640625 0.390625q-0.484375 0.375 -0.484375 0.875q0 0.328125 0.203125 0.59375q0.203125 0.265625 0.640625 0.4375q0.25 0.09375 1.46875 0.4375q1.765625 0.46875 2.46875 0.765625q0.703125 0.296875 1.09375 0.875q0.40625 0.578125 0.40625 1.4375q0 0.828125 -0.484375 1.578125q-0.484375 0.734375 -1.40625 1.140625q-0.921875 0.390625 -2.078125 0.390625q-1.921875 0 -2.9375 -0.796875q-1.0 -0.796875 -1.28125 -2.359375z" fill-rule="nonzero"></path><path fill="#a64d79" d="m21.816273 312.5328l229.32285 0l0 102.33072l-229.32285 0z" fill-rule="evenodd"></path><path stroke="#000000" stroke-width="1.0" stroke-linejoin="round" stroke-linecap="butt" d="m21.816273 312.5328l229.32285 0l0 102.33072l-229.32285 0z" fill-rule="evenodd"></path><path fill="#000000" d="m72.58707 356.3869l3.03125 0.765625q-0.953125 3.734375 -3.4375 5.703125q-2.46875 1.953125 -6.046875 1.953125q-3.7031288 0 -6.031254 -1.5q-2.3125 -1.515625 -3.53125 -4.375q-1.203125 -2.859375 -1.203125 -6.140625q0 -3.578125 1.359375 -6.234375q1.375 -2.671875 3.890625 -4.046875q2.53125 -1.390625 5.562504 -1.390625q3.4375 0 5.78125 1.75q2.34375 1.75 3.265625 4.921875l-2.984375 0.703125q-0.796875 -2.5 -2.3125 -3.640625q-1.515625 -1.140625 -3.8125 -1.140625q-2.6406288 0 -4.421879 1.265625q-1.765625 1.265625 -2.484375 3.40625q-0.71875 2.125 -0.71875 4.390625q0 2.921875 0.84375 5.109375q0.859375 2.171875 2.65625 3.25q1.796875 1.078125 3.8906288 1.078125q2.546875 0 4.3125 -1.46875q1.765625 -1.46875 2.390625 -4.359375zm6.828125 8.03125l0 -22.90625l16.5625 0l0 2.703125l-13.53125 0l0 7.015625l12.671875 0l0 2.6875l-12.671875 0l0 7.796875l14.0625 0l0 2.703125l-17.09375 0zm21.15625 0l0 -22.90625l3.03125 0l0 20.203125l11.28125 0l0 2.703125l-14.3125 0zm17.796875 0l0 -22.90625l3.03125 0l0 20.203125l11.28125 0l0 2.703125l-14.3125 0zm32.95311 -22.90625l3.03125 0l0 13.234375q0 3.453125 -0.78125 5.484375q-0.78125 2.03125 -2.828125 3.3125q-2.0312347 1.265625 -5.3437347 1.265625q-3.21875 0 -5.265625 -1.109375q-2.046875 -1.109375 -2.921875 -3.203125q-0.875 -2.109375 -0.875 -5.75l0 -13.234375l3.03125 0l0 13.21875q0 2.984375 0.546875 4.40625q0.5625 1.40625 1.90625 2.171875q1.359375 0.765625 3.3125 0.765625q3.34375 0 4.7656097 -1.515625q1.421875 -1.515625 1.421875 -5.828125l0 -13.21875zm7.953125 22.90625l0 -22.90625l3.03125 0l0 20.203125l11.28125 0l0 2.703125l-14.3125 0zm15.40625 0l8.796875 -22.90625l3.265625 0l9.375 22.90625l-3.453125 0l-2.671875 -6.9375l-9.578125 0l-2.515625 6.9375l-3.21875 0zm6.609375 -9.40625l7.765625 0l-2.390625 -6.34375q-1.09375 -2.890625 -1.625 -4.75q-0.4375 2.203125 -1.234375 4.375l-2.515625 6.71875zm17.296875 9.40625l0 -22.90625l10.15625 0q3.0625 0 4.65625 0.625q1.59375 0.609375 2.546875 2.171875q0.953125 1.5625 0.953125 3.453125q0 2.4375 -1.578125 4.109375q-1.578125 1.671875 -4.875 2.125q1.203125 0.578125 1.828125 1.140625q1.328125 1.21875 2.515625 3.046875l3.984375 6.234375l-3.8125 0l-3.03125 -4.765625q-1.328125 -2.0625 -2.1875 -3.15625q-0.859375 -1.09375 -1.546875 -1.53125q-0.671875 -0.4375 -1.375 -0.609375q-0.515625 -0.109375 -1.6875 -0.109375l-3.515625 0l0 10.171875l-3.03125 0zm3.03125 -12.796875l6.515625 0q2.078125 0 3.25 -0.421875q1.171875 -0.4375 1.78125 -1.375q0.609375 -0.953125 0.609375 -2.0625q0 -1.625 -1.1875 -2.671875q-1.171875 -1.046875 -3.71875 -1.046875l-7.25 0l0 7.578125z" fill-rule="nonzero"></path><path fill="#000000" d="m39.58875 386.68066l1.65625 -0.265625q0.140625 1.0 0.765625 1.53125q0.640625 0.515625 1.78125 0.515625q1.15625 0 1.703125 -0.46875q0.5625 -0.46875 0.5625 -1.09375q0 -0.5625 -0.484375 -0.890625q-0.34375 -0.21875 -1.703125 -0.5625q-1.84375 -0.46875 -2.5625 -0.796875q-0.703125 -0.34375 -1.078125 -0.9375q-0.359375 -0.609375 -0.359375 -1.328125q0 -0.65625 0.296875 -1.21875q0.3125 -0.5625 0.828125 -0.9375q0.390625 -0.28125 1.0625 -0.484375q0.671875 -0.203125 1.4375 -0.203125q1.171875 0 2.046875 0.34375q0.875 0.328125 1.28125 0.90625q0.421875 0.5625 0.578125 1.515625l-1.625 0.21875q-0.109375 -0.75 -0.65625 -1.171875q-0.53125 -0.4375 -1.5 -0.4375q-1.15625 0 -1.640625 0.390625q-0.484375 0.375 -0.484375 0.875q0 0.328125 0.203125 0.59375q0.203125 0.265625 0.640625 0.4375q0.25 0.09375 1.46875 0.4375q1.765625 0.46875 2.46875 0.765625q0.703125 0.296875 1.09375 0.875q0.40625 0.578125 0.40625 1.4375q0 0.828125 -0.484375 1.578125q-0.484375 0.734375 -1.40625 1.140625q-0.921875 0.390625 -2.078125 0.390625q-1.921875 0 -2.9375 -0.796875q-1.0 -0.796875 -1.28125 -2.359375zm13.65625 1.4375l0.234375 1.484375q-0.703125 0.140625 -1.265625 0.140625q-0.90625 0 -1.40625 -0.28125q-0.5 -0.296875 -0.703125 -0.75q-0.203125 -0.46875 -0.203125 -1.984375l0 -5.65625l-1.234375 0l0 -1.3125l1.234375 0l0 -2.4375l1.65625 -1.0l0 3.4375l1.6875 0l0 1.3125l-1.6875 0l0 5.75q0 0.71875 0.078125 0.921875q0.09375 0.203125 0.296875 0.328125q0.203125 0.125 0.578125 0.125q0.265625 0 0.734375 -0.078125zm1.5114288 1.5l0 -9.859375l1.5 0l0 1.5q0.578125 -1.046875 1.0625 -1.375q0.484375 -0.34375 1.078125 -0.34375q0.84375 0 1.71875 0.546875l-0.578125 1.546875q-0.609375 -0.359375 -1.234375 -0.359375q-0.546875 0 -0.984375 0.328125q-0.421875 0.328125 -0.609375 0.90625q-0.28125 0.890625 -0.28125 1.953125l0 5.15625l-1.671875 0zm12.681431 0l0 -1.453125q-1.140625 1.671875 -3.125 1.671875q-0.8593788 0 -1.6250038 -0.328125q-0.75 -0.34375 -1.125 -0.84375q-0.359375 -0.5 -0.515625 -1.234375q-0.09375 -0.5 -0.09375 -1.5625l0 -6.109375l1.671875 0l0 5.46875q0 1.3125 0.09375 1.765625q0.15625 0.65625 0.671875 1.03125q0.515625 0.375 1.2656288 0.375q0.75 0 1.40625 -0.375q0.65625 -0.390625 0.921875 -1.046875q0.28125 -0.671875 0.28125 -1.9375l0 -5.28125l1.671875 0l0 9.859375l-1.5 0zm10.360092 -3.609375l1.640625 0.21875q-0.265625 1.6875 -1.375 2.65625q-1.109375 0.953125 -2.734375 0.953125q-2.015625 0 -3.25 -1.3125q-1.21875 -1.328125 -1.21875 -3.796875q0 -1.59375 0.515625 -2.78125q0.53125 -1.203125 1.609375 -1.796875q1.09375 -0.609375 2.359375 -0.609375q1.609375 0 2.625 0.8125q1.015625 0.8125 1.3125 2.3125l-1.625 0.25q-0.234375 -1.0 -0.828125 -1.5q-0.59375 -0.5 -1.421875 -0.5q-1.265625 0 -2.0625 0.90625q-0.78125 0.90625 -0.78125 2.859375q0 1.984375 0.765625 2.890625q0.765625 0.890625 1.984375 0.890625q0.984375 0 1.640625 -0.59375q0.65625 -0.609375 0.84375 -1.859375zm6.546875 2.109375l0.234375 1.484375q-0.703125 0.140625 -1.265625 0.140625q-0.90625 0 -1.40625 -0.28125q-0.5 -0.296875 -0.703125 -0.75q-0.203125 -0.46875 -0.203125 -1.984375l0 -5.65625l-1.234375 0l0 -1.3125l1.234375 0l0 -2.4375l1.65625 -1.0l0 3.4375l1.6875 0l0 1.3125l-1.6875 0l0 5.75q0 0.71875 0.078125 0.921875q0.09375 0.203125 0.296875 0.328125q0.203125 0.125 0.578125 0.125q0.265625 0 0.734375 -0.078125zm7.980179 1.5l0 -1.453125q-1.140625 1.671875 -3.125 1.671875q-0.859375 0 -1.625 -0.328125q-0.75 -0.34375 -1.125 -0.84375q-0.359375 -0.5 -0.515625 -1.234375q-0.09375 -0.5 -0.09375 -1.5625l0 -6.109375l1.671875 0l0 5.46875q0 1.3125 0.09375 1.765625q0.15625 0.65625 0.671875 1.03125q0.515625 0.375 1.265625 0.375q0.75 0 1.40625 -0.375q0.65625 -0.390625 0.921875 -1.046875q0.28125 -0.671875 0.28125 -1.9375l0 -5.28125l1.671875 0l0 9.859375l-1.5 0zm3.9069672 0l0 -9.859375l1.5 0l0 1.5q0.578125 -1.046875 1.0625 -1.375q0.484375 -0.34375 1.078125 -0.34375q0.84375 0 1.71875 0.546875l-0.578125 1.546875q-0.609375 -0.359375 -1.234375 -0.359375q-0.546875 0 -0.984375 0.328125q-0.421875 0.328125 -0.609375 0.90625q-0.28125 0.890625 -0.28125 1.953125l0 5.15625l-1.671875 0zm12.978302 -3.171875l1.71875 0.21875q-0.40625 1.5 -1.515625 2.34375q-1.09375 0.828125 -2.8125 0.828125q-2.15625 0 -3.421875 -1.328125q-1.265625 -1.328125 -1.265625 -3.734375q0 -2.484375 1.265625 -3.859375q1.28125 -1.375 3.328125 -1.375q1.984375 0 3.234375 1.34375q1.25 1.34375 1.25 3.796875q0 0.140625 -0.015625 0.4375l-7.34375 0q0.09375 1.625 0.921875 2.484375q0.828125 0.859375 2.0625 0.859375q0.90625 0 1.546875 -0.46875q0.65625 -0.484375 1.046875 -1.546875zm-5.484375 -2.703125l5.5 0q-0.109375 -1.234375 -0.625 -1.859375q-0.796875 -0.96875 -2.078125 -0.96875q-1.140625 0 -1.9375 0.78125q-0.78125 0.765625 -0.859375 2.046875zm22.074646 4.265625q-0.828125 0.921875 -1.8125 1.390625q-0.96875 0.453125 -2.09375 0.453125q-2.09375 0 -3.3125 -1.40625q-1.0 -1.15625 -1.0 -2.578125q0 -1.265625 0.8125 -2.28125q0.8125 -1.015625 2.421875 -1.78125q-0.90625 -1.0625 -1.21875 -1.71875q-0.296875 -0.65625 -0.296875 -1.265625q0 -1.234375 0.953125 -2.125q0.953125 -0.90625 2.421875 -0.90625q1.390625 0 2.265625 0.859375q0.890625 0.84375 0.890625 2.046875q0 1.9375 -2.5625 3.3125l2.4375 3.09375q0.421875 -0.8125 0.640625 -1.890625l1.7343674 0.375q-0.43749237 1.78125 -1.2031174 2.9375q0.9375 1.234375 2.1249924 2.078125l-1.1249924 1.328125q-1.0 -0.640625 -2.078125 -1.921875zm-3.40625 -7.078125q1.09375 -0.640625 1.40625 -1.125q0.328125 -0.484375 0.328125 -1.0625q0 -0.703125 -0.453125 -1.140625q-0.4375 -0.4375 -1.09375 -0.4375q-0.671875 0 -1.125 0.4375q-0.453125 0.421875 -0.453125 1.0625q0 0.3125 0.15625 0.65625q0.171875 0.34375 0.5 0.734375l0.734375 0.875zm2.359375 5.765625l-3.0625 -3.796875q-1.359375 0.8125 -1.84375 1.5q-0.46875 0.6875 -0.46875 1.375q0 0.8125 0.65625 1.703125q0.671875 0.890625 1.875 0.890625q0.75 0 1.546875 -0.46875q0.8125 -0.46875 1.296875 -1.203125zm17.329994 -0.6875l1.640625 0.21875q-0.265625 1.6875 -1.375 2.65625q-1.109375 0.953125 -2.734375 0.953125q-2.015625 0 -3.25 -1.3125q-1.21875 -1.328125 -1.21875 -3.796875q0 -1.59375 0.515625 -2.78125q0.53125 -1.203125 1.609375 -1.796875q1.09375 -0.609375 2.359375 -0.609375q1.609375 0 2.625 0.8125q1.015625 0.8125 1.3125 2.3125l-1.625 0.25q-0.234375 -1.0 -0.828125 -1.5q-0.59375 -0.5 -1.421875 -0.5q-1.265625 0 -2.0625 0.90625q-0.78125 0.90625 -0.78125 2.859375q0 1.984375 0.765625 2.890625q0.765625 0.890625 1.984375 0.890625q0.984375 0 1.640625 -0.59375q0.65625 -0.609375 0.84375 -1.859375zm2.265625 -1.3125q0 -2.734375 1.53125 -4.0625q1.265625 -1.09375 3.09375 -1.09375q2.03125 0 3.3125 1.34375q1.296875 1.328125 1.296875 3.671875q0 1.90625 -0.578125 3.0q-0.5625 1.078125 -1.65625 1.6875q-1.078125 0.59375 -2.375 0.59375q-2.0625 0 -3.34375 -1.328125q-1.28125 -1.328125 -1.28125 -3.8125zm1.71875 0q0 1.890625 0.828125 2.828125q0.828125 0.9375 2.078125 0.9375q1.25 0 2.0625 -0.9375q0.828125 -0.953125 0.828125 -2.890625q0 -1.828125 -0.828125 -2.765625q-0.828125 -0.9375 -2.0625 -0.9375q-1.25 0 -2.078125 0.9375q-0.828125 0.9375 -0.828125 2.828125zm9.281967 4.921875l0 -9.859375l1.5 0l0 1.390625q0.453125 -0.71875 1.21875 -1.15625q0.78125 -0.453125 1.765625 -0.453125q1.09375 0 1.796875 0.453125q0.703125 0.453125 0.984375 1.28125q1.171875 -1.734375 3.046875 -1.734375q1.46875 0 2.25 0.8125q0.796875 0.8125 0.796875 2.5l0 6.765625l-1.671875 0l0 -6.203125q0 -1.0 -0.15625 -1.4375q-0.15625 -0.453125 -0.59375 -0.71875q-0.421875 -0.265625 -1.0 -0.265625q-1.03125 0 -1.71875 0.6875q-0.6875 0.6875 -0.6875 2.21875l0 5.71875l-1.671875 0l0 -6.40625q0 -1.109375 -0.40625 -1.65625q-0.40625 -0.5625 -1.34375 -0.5625q-0.703125 0 -1.3125 0.375q-0.59375 0.359375 -0.859375 1.078125q-0.265625 0.71875 -0.265625 2.0625l0 5.109375l-1.671875 0zm15.540802 3.78125l0 -13.640625l1.53125 0l0 1.28125q0.53125 -0.75 1.203125 -1.125q0.6875 -0.375 1.640625 -0.375q1.265625 0 2.234375 0.65625q0.96875 0.640625 1.453125 1.828125q0.5 1.1875 0.5 2.59375q0 1.515625 -0.546875 2.734375q-0.546875 1.203125 -1.578125 1.84375q-1.03125 0.640625 -2.171875 0.640625q-0.84375 0 -1.515625 -0.34375q-0.65625 -0.359375 -1.078125 -0.890625l0 4.796875l-1.671875 0zm1.515625 -8.65625q0 1.90625 0.765625 2.8125q0.78125 0.90625 1.875 0.90625q1.109375 0 1.890625 -0.9375q0.796875 -0.9375 0.796875 -2.921875q0 -1.875 -0.78125 -2.8125q-0.765625 -0.9375 -1.84375 -0.9375q-1.0625 0 -1.890625 1.0q-0.8125 1.0 -0.8125 2.890625zm8.235092 -0.046875q0 -2.734375 1.53125 -4.0625q1.265625 -1.09375 3.09375 -1.09375q2.03125 0 3.3125 1.34375q1.296875 1.328125 1.296875 3.671875q0 1.90625 -0.578125 3.0q-0.5625 1.078125 -1.65625 1.6875q-1.078125 0.59375 -2.375 0.59375q-2.0625 0 -3.34375 -1.328125q-1.28125 -1.328125 -1.28125 -3.8125zm1.71875 0q0 1.890625 0.828125 2.828125q0.828125 0.9375 2.078125 0.9375q1.25 0 2.0625 -0.9375q0.828125 -0.953125 0.828125 -2.890625q0 -1.828125 -0.828125 -2.765625q-0.828125 -0.9375 -2.0625 -0.9375q-1.25 0 -2.078125 0.9375q-0.828125 0.9375 -0.828125 2.828125zm8.610092 1.984375l1.65625 -0.265625q0.140625 1.0 0.765625 1.53125q0.640625 0.515625 1.78125 0.515625q1.15625 0 1.703125 -0.46875q0.5625 -0.46875 0.5625 -1.09375q0 -0.5625 -0.484375 -0.890625q-0.34375 -0.21875 -1.703125 -0.5625q-1.84375 -0.46875 -2.5625 -0.796875q-0.703125 -0.34375 -1.078125 -0.9375q-0.359375 -0.609375 -0.359375 -1.328125q0 -0.65625 0.296875 -1.21875q0.3125 -0.5625 0.828125 -0.9375q0.390625 -0.28125 1.0625 -0.484375q0.671875 -0.203125 1.4375 -0.203125q1.171875 0 2.046875 0.34375q0.875 0.328125 1.28125 0.90625q0.421875 0.5625 0.578125 1.515625l-1.625 0.21875q-0.109375 -0.75 -0.65625 -1.171875q-0.53125 -0.4375 -1.5 -0.4375q-1.15625 0 -1.640625 0.390625q-0.484375 0.375 -0.484375 0.875q0 0.328125 0.203125 0.59375q0.203125 0.265625 0.640625 0.4375q0.25 0.09375 1.46875 0.4375q1.765625 0.46875 2.46875 0.765625q0.703125 0.296875 1.09375 0.875q0.40625 0.578125 0.40625 1.4375q0 0.828125 -0.484375 1.578125q-0.484375 0.734375 -1.40625 1.140625q-0.921875 0.390625 -2.078125 0.390625q-1.921875 0 -2.9375 -0.796875q-1.0 -0.796875 -1.28125 -2.359375zm10.015625 -8.75l0 -1.90625l1.671875 0l0 1.90625l-1.671875 0zm0 11.6875l0 -9.859375l1.671875 0l0 9.859375l-1.671875 0zm7.785446 -1.5l0.234375 1.484375q-0.703125 0.140625 -1.265625 0.140625q-0.90625 0 -1.40625 -0.28125q-0.5 -0.296875 -0.703125 -0.75q-0.203125 -0.46875 -0.203125 -1.984375l0 -5.65625l-1.234375 0l0 -1.3125l1.234375 0l0 -2.4375l1.65625 -1.0l0 3.4375l1.6875 0l0 1.3125l-1.6875 0l0 5.75q0 0.71875 0.078125 0.921875q0.09375 0.203125 0.296875 0.328125q0.203125 0.125 0.578125 0.125q0.265625 0 0.734375 -0.078125zm1.5426788 -10.1875l0 -1.90625l1.671875 0l0 1.90625l-1.671875 0zm0 11.6875l0 -9.859375l1.671875 0l0 9.859375l-1.671875 0zm3.5041962 -4.921875q0 -2.734375 1.53125 -4.0625q1.265625 -1.09375 3.09375 -1.09375q2.03125 0 3.3125 1.34375q1.296875 1.328125 1.296875 3.671875q0 1.90625 -0.578125 3.0q-0.5625 1.078125 -1.65625 1.6875q-1.078125 0.59375 -2.375 0.59375q-2.0625 0 -3.34375 -1.328125q-1.28125 -1.328125 -1.28125 -3.8125zm1.71875 0q0 1.890625 0.828125 2.828125q0.828125 0.9375 2.078125 0.9375q1.25 0 2.0625 -0.9375q0.828125 -0.953125 0.828125 -2.890625q0 -1.828125 -0.828125 -2.765625q-0.828125 -0.9375 -2.0625 -0.9375q-1.25 0 -2.078125 0.9375q-0.828125 0.9375 -0.828125 2.828125zm9.281967 4.921875l0 -9.859375l1.5 0l0 1.40625q1.09375 -1.625 3.140625 -1.625q0.890625 0 1.640625 0.328125q0.75 0.3125 1.109375 0.84375q0.375 0.515625 0.53125 1.21875q0.09375 0.46875 0.09375 1.625l0 6.0625l-1.671875 0l0 -6.0q0 -1.015625 -0.203125 -1.515625q-0.1875 -0.515625 -0.6875 -0.8125q-0.5 -0.296875 -1.171875 -0.296875q-1.0625 0 -1.84375 0.671875q-0.765625 0.671875 -0.765625 2.578125l0 5.375l-1.671875 0z" fill-rule="nonzero"></path><path fill="#ff9900" d="m316.32547 16.548557l229.32285 0l0 102.3307l-229.32285 0z" fill-rule="evenodd"></path><path stroke="#000000" stroke-width="1.0" stroke-linejoin="round" stroke-linecap="butt" d="m316.32547 16.548557l229.32285 0l0 102.3307l-229.32285 0z" fill-rule="evenodd"></path><path fill="#000000" d="m371.29938 59.449535l0 -2.6875l9.703125 -0.015625l0 8.499996q-2.234375 1.78125 -4.609375 2.6875q-2.375 0.890625 -4.875 0.890625q-3.375 0 -6.140625 -1.4375q-2.75 -1.453125 -4.15625 -4.187496q-1.40625 -2.734375 -1.40625 -6.109375q0 -3.34375 1.390625 -6.234375q1.40625 -2.90625 4.03125 -4.3125q2.625 -1.40625 6.046875 -1.40625q2.484375 0 4.484375 0.8125q2.015625 0.796875 3.15625 2.234375q1.140625 1.4375 1.734375 3.75l-2.734375 0.75q-0.515625 -1.75 -1.28125 -2.75q-0.765625 -1.0 -2.1875 -1.59375q-1.421875 -0.609375 -3.15625 -0.609375q-2.078125 0 -3.59375 0.640625q-1.515625 0.625 -2.453125 1.65625q-0.921875 1.03125 -1.4375 2.265625q-0.875 2.125 -0.875 4.609375q0 3.0625 1.046875 5.125q1.0625 2.0624962 3.078125 3.0624962q2.015625 1.0 4.28125 1.0q1.96875 0 3.84375 -0.75q1.875 -0.765625 2.84375 -1.6249962l0 -4.265625l-6.734375 0zm14.21875 8.984371l0 -22.906246l10.15625 0q3.0625 0 4.65625 0.625q1.59375 0.609375 2.546875 2.171875q0.953125 1.5625 0.953125 3.453125q0 2.4375 -1.578125 4.109375q-1.578125 1.671875 -4.875 2.125q1.203125 0.578125 1.828125 1.140625q1.328125 1.21875 2.515625 3.046875l3.984375 6.234371l-3.8125 0l-3.03125 -4.765621q-1.328125 -2.0625 -2.1875 -3.15625q-0.859375 -1.09375 -1.546875 -1.53125q-0.671875 -0.4375 -1.375 -0.609375q-0.515625 -0.109375 -1.6875 -0.109375l-3.515625 0l0 10.171871l-3.03125 0zm3.03125 -12.796871l6.515625 0q2.078125 0 3.25 -0.421875q1.171875 -0.4375 1.78125 -1.375q0.609375 -0.953125 0.609375 -2.0625q0 -1.625 -1.1875 -2.671875q-1.171875 -1.046875 -3.71875 -1.046875l-7.25 0l0 7.578125zm19.109375 1.640625q0 -5.703125 3.0625 -8.921875q3.0625 -3.234375 7.90625 -3.234375q3.171875 0 5.71875 1.515625q2.546875 1.515625 3.875 4.234375q1.34375 2.703125 1.34375 6.140625q0 3.484375 -1.40625 6.234375q-1.40625 2.7499962 -3.984375 4.171871q-2.578125 1.40625 -5.5625 1.40625q-3.234375 0 -5.78125 -1.5625q-2.546875 -1.5625 -3.859375 -4.265621q-1.3125 -2.703125 -1.3125 -5.71875zm3.125 0.046875q0 4.140625 2.21875 6.53125q2.234375 2.3749962 5.59375 2.3749962q3.421875 0 5.625 -2.4062462q2.21875 -2.40625 2.21875 -6.828125q0 -2.796875 -0.953125 -4.875q-0.9375 -2.09375 -2.765625 -3.234375q-1.8125 -1.15625 -4.078125 -1.15625q-3.21875 0 -5.546875 2.21875q-2.3125 2.203125 -2.3125 7.375zm26.6875 11.109371l-6.078125 -22.906246l3.109375 0l3.484375 15.015625q0.5625 2.359375 0.96875 4.687496q0.875 -3.6718712 1.03125 -4.234371l4.359375 -15.46875l3.65625 0l3.28125 11.59375q1.234375 4.3125 1.78125 8.109371q0.4375 -2.1718712 1.140625 -4.984371l3.59375 -14.71875l3.046875 0l-6.28125 22.906246l-2.921875 0l-4.828125 -17.453121q-0.609375 -2.1875 -0.71875 -2.6875q-0.359375 1.578125 -0.671875 2.6875l-4.859375 17.453121l-3.09375 0zm32.03125 0l0 -20.203121l-7.546875 0l0 -2.703125l18.15625 0l0 2.703125l-7.578125 0l0 20.203121l-3.03125 0zm13.8125 0l0 -22.906246l3.03125 0l0 9.40625l11.90625 0l0 -9.40625l3.03125 0l0 22.906246l-3.03125 0l0 -10.796871l-11.90625 0l0 10.796871l-3.03125 0z" fill-rule="nonzero"></path><path fill="#000000" d="m367.10562 92.41515q-0.9375 0.796875 -1.796875 1.125q-0.859375 0.3125 -1.84375 0.3125q-1.609375 0 -2.484375 -0.78125q-0.875 -0.796875 -0.875 -2.03125q0 -0.734375 0.328125 -1.328125q0.328125 -0.59375 0.859375 -0.953125q0.53125 -0.359375 1.203125 -0.546875q0.5 -0.140625 1.484375 -0.25q2.03125 -0.25 2.984375 -0.578125q0 -0.34375 0 -0.4375q0 -1.015625 -0.46875 -1.4375q-0.640625 -0.5625 -1.90625 -0.5625q-1.171875 0 -1.734375 0.40625q-0.5625 0.40625 -0.828125 1.46875l-1.640625 -0.234375q0.234375 -1.046875 0.734375 -1.6875q0.515625 -0.640625 1.46875 -0.984375q0.96875 -0.359375 2.25 -0.359375q1.265625 0 2.046875 0.296875q0.78125 0.296875 1.15625 0.75q0.375 0.453125 0.515625 1.140625q0.09375 0.421875 0.09375 1.53125l0 2.234375q0 2.328125 0.09375 2.953125q0.109375 0.609375 0.4375 1.171875l-1.75 0q-0.265625 -0.515625 -0.328125 -1.21875zm-0.140625 -3.71875q-0.90625 0.359375 -2.734375 0.625q-1.03125 0.140625 -1.453125 0.328125q-0.421875 0.1875 -0.65625 0.546875q-0.234375 0.359375 -0.234375 0.796875q0 0.671875 0.5 1.125q0.515625 0.4375 1.484375 0.4375q0.96875 0 1.71875 -0.421875q0.75 -0.4375 1.109375 -1.15625q0.265625 -0.578125 0.265625 -1.671875l0 -0.609375zm4.078827 4.9375l0 -9.859375l1.5 0l0 1.40625q1.09375 -1.625 3.140625 -1.625q0.890625 0 1.640625 0.328125q0.75 0.3125 1.109375 0.84375q0.375 0.515625 0.53125 1.21875q0.09375 0.46875 0.09375 1.625l0 6.0625l-1.671875 0l0 -6.0q0 -1.015625 -0.203125 -1.515625q-0.1875 -0.515625 -0.6875 -0.8125q-0.5 -0.296875 -1.171875 -0.296875q-1.0625 0 -1.84375 0.671875q-0.765625 0.671875 -0.765625 2.578125l0 5.375l-1.671875 0zm16.766357 0l0 -1.25q-0.9375 1.46875 -2.75 1.46875q-1.171875 0 -2.171875 -0.640625q-0.984375 -0.65625 -1.53125 -1.8125q-0.53125 -1.171875 -0.53125 -2.6875q0 -1.46875 0.484375 -2.671875q0.5 -1.203125 1.46875 -1.84375q0.984375 -0.640625 2.203125 -0.640625q0.890625 0 1.578125 0.375q0.703125 0.375 1.140625 0.984375l0 -4.875l1.65625 0l0 13.59375l-1.546875 0zm-5.28125 -4.921875q0 1.890625 0.796875 2.828125q0.8125 0.9375 1.890625 0.9375q1.09375 0 1.859375 -0.890625q0.765625 -0.890625 0.765625 -2.734375q0 -2.015625 -0.78125 -2.953125q-0.78125 -0.953125 -1.921875 -0.953125q-1.109375 0 -1.859375 0.90625q-0.75 0.90625 -0.75 2.859375zm20.840271 4.921875l0 -1.25q-0.9375 1.46875 -2.75 1.46875q-1.171875 0 -2.171875 -0.640625q-0.984375 -0.65625 -1.53125 -1.8125q-0.53125 -1.171875 -0.53125 -2.6875q0 -1.46875 0.484375 -2.671875q0.5 -1.203125 1.46875 -1.84375q0.984375 -0.640625 2.203125 -0.640625q0.890625 0 1.578125 0.375q0.703125 0.375 1.140625 0.984375l0 -4.875l1.65625 0l0 13.59375l-1.546875 0zm-5.28125 -4.921875q0 1.890625 0.796875 2.828125q0.8125 0.9375 1.890625 0.9375q1.09375 0 1.859375 -0.890625q0.765625 -0.890625 0.765625 -2.734375q0 -2.015625 -0.78125 -2.953125q-0.78125 -0.953125 -1.921875 -0.953125q-1.109375 0 -1.859375 0.90625q-0.75 0.90625 -0.75 2.859375zm16.016327 1.75l1.71875 0.21875q-0.40625 1.5 -1.515625 2.34375q-1.09375 0.828125 -2.8125 0.828125q-2.15625 0 -3.421875 -1.328125q-1.265625 -1.328125 -1.265625 -3.734375q0 -2.484375 1.265625 -3.859375q1.28125 -1.375 3.328125 -1.375q1.984375 0 3.234375 1.34375q1.25 1.34375 1.25 3.796875q0 0.140625 -0.015625 0.4375l-7.34375 0q0.09375 1.625 0.921875 2.484375q0.828125 0.859375 2.0625 0.859375q0.90625 0 1.546875 -0.46875q0.65625 -0.484375 1.046875 -1.546875zm-5.484375 -2.703125l5.5 0q-0.109375 -1.234375 -0.625 -1.859375q-0.796875 -0.96875 -2.078125 -0.96875q-1.140625 0 -1.9375 0.78125q-0.78125 0.765625 -0.859375 2.046875zm11.844482 5.875l-3.75 -9.859375l1.765625 0l2.125 5.90625q0.34375 0.953125 0.625 1.984375q0.21875 -0.78125 0.625 -1.875l2.1875 -6.015625l1.71875 0l-3.734375 9.859375l-1.5625 0zm13.34375 -3.171875l1.71875 0.21875q-0.40625 1.5 -1.515625 2.34375q-1.09375 0.828125 -2.8125 0.828125q-2.15625 0 -3.421875 -1.328125q-1.265625 -1.328125 -1.265625 -3.734375q0 -2.484375 1.265625 -3.859375q1.28125 -1.375 3.328125 -1.375q1.984375 0 3.234375 1.34375q1.25 1.34375 1.25 3.796875q0 0.140625 -0.015625 0.4375l-7.34375 0q0.09375 1.625 0.921875 2.484375q0.828125 0.859375 2.0625 0.859375q0.90625 0 1.546875 -0.46875q0.65625 -0.484375 1.046875 -1.546875zm-5.484375 -2.703125l5.5 0q-0.109375 -1.234375 -0.625 -1.859375q-0.796875 -0.96875 -2.078125 -0.96875q-1.140625 0 -1.9375 0.78125q-0.78125 0.765625 -0.859375 2.046875zm9.078827 5.875l0 -13.59375l1.671875 0l0 13.59375l-1.671875 0zm3.5510864 -4.921875q0 -2.734375 1.53125 -4.0625q1.265625 -1.09375 3.09375 -1.09375q2.03125 0 3.3125 1.34375q1.296875 1.328125 1.296875 3.671875q0 1.90625 -0.578125 3.0q-0.5625 1.078125 -1.65625 1.6875q-1.078125 0.59375 -2.375 0.59375q-2.0625 0 -3.34375 -1.328125q-1.28125 -1.328125 -1.28125 -3.8125zm1.71875 0q0 1.890625 0.828125 2.828125q0.828125 0.9375 2.078125 0.9375q1.25 0 2.0625 -0.9375q0.828125 -0.953125 0.828125 -2.890625q0 -1.828125 -0.828125 -2.765625q-0.828125 -0.9375 -2.0625 -0.9375q-1.25 0 -2.078125 0.9375q-0.828125 0.9375 -0.828125 2.828125zm9.281952 8.703125l0 -13.640625l1.53125 0l0 1.28125q0.53125 -0.75 1.203125 -1.125q0.6875 -0.375 1.640625 -0.375q1.265625 0 2.234375 0.65625q0.96875 0.640625 1.453125 1.828125q0.5 1.1875 0.5 2.59375q0 1.515625 -0.546875 2.734375q-0.546875 1.203125 -1.578125 1.84375q-1.03125 0.640625 -2.171875 0.640625q-0.84375 0 -1.515625 -0.34375q-0.65625 -0.359375 -1.078125 -0.890625l0 4.796875l-1.671875 0zm1.515625 -8.65625q0 1.90625 0.765625 2.8125q0.78125 0.90625 1.875 0.90625q1.109375 0 1.890625 -0.9375q0.796875 -0.9375 0.796875 -2.921875q0 -1.875 -0.78125 -2.8125q-0.765625 -0.9375 -1.84375 -0.9375q-1.0625 0 -1.890625 1.0q-0.8125 1.0 -0.8125 2.890625zm8.860107 4.875l0 -9.859375l1.5 0l0 1.390625q0.453125 -0.71875 1.21875 -1.15625q0.78125 -0.453125 1.765625 -0.453125q1.09375 0 1.796875 0.453125q0.703125 0.453125 0.984375 1.28125q1.171875 -1.734375 3.046875 -1.734375q1.46875 0 2.25 0.8125q0.796875 0.8125 0.796875 2.5l0 6.765625l-1.671875 0l0 -6.203125q0 -1.0 -0.15625 -1.4375q-0.15625 -0.453125 -0.59375 -0.71875q-0.421875 -0.265625 -1.0 -0.265625q-1.03125 0 -1.71875 0.6875q-0.6875 0.6875 -0.6875 2.21875l0 5.71875l-1.671875 0l0 -6.40625q0 -1.109375 -0.40625 -1.65625q-0.40625 -0.5625 -1.34375 -0.5625q-0.703125 0 -1.3125 0.375q-0.59375 0.359375 -0.859375 1.078125q-0.265625 0.71875 -0.265625 2.0625l0 5.109375l-1.671875 0zm22.290802 -3.171875l1.71875 0.21875q-0.40625 1.5 -1.515625 2.34375q-1.09375 0.828125 -2.8125 0.828125q-2.15625 0 -3.421875 -1.328125q-1.265625 -1.328125 -1.265625 -3.734375q0 -2.484375 1.265625 -3.859375q1.28125 -1.375 3.328125 -1.375q1.984375 0 3.234375 1.34375q1.25 1.34375 1.25 3.796875q0 0.140625 -0.015625 0.4375l-7.34375 0q0.09375 1.625 0.921875 2.484375q0.828125 0.859375 2.0625 0.859375q0.90625 0 1.546875 -0.46875q0.65625 -0.484375 1.046875 -1.546875zm-5.484375 -2.703125l5.5 0q-0.109375 -1.234375 -0.625 -1.859375q-0.796875 -0.96875 -2.078125 -0.96875q-1.140625 0 -1.9375 0.78125q-0.78125 0.765625 -0.859375 2.046875zm9.110077 5.875l0 -9.859375l1.5 0l0 1.40625q1.09375 -1.625 3.140625 -1.625q0.890625 0 1.640625 0.328125q0.75 0.3125 1.109375 0.84375q0.375 0.515625 0.53125 1.21875q0.09375 0.46875 0.09375 1.625l0 6.0625l-1.671875 0l0 -6.0q0 -1.015625 -0.203125 -1.515625q-0.1875 -0.515625 -0.6875 -0.8125q-0.5 -0.296875 -1.171875 -0.296875q-1.0625 0 -1.84375 0.671875q-0.765625 0.671875 -0.765625 2.578125l0 5.375l-1.671875 0zm14.031982 -1.5l0.234375 1.484375q-0.703125 0.140625 -1.265625 0.140625q-0.90625 0 -1.40625 -0.28125q-0.5 -0.296875 -0.703125 -0.75q-0.203125 -0.46875 -0.203125 -1.984375l0 -5.65625l-1.234375 0l0 -1.3125l1.234375 0l0 -2.4375l1.65625 -1.0l0 3.4375l1.6875 0l0 1.3125l-1.6875 0l0 5.75q0 0.71875 0.078125 0.921875q0.09375 0.203125 0.296875 0.328125q0.203125 0.125 0.578125 0.125q0.265625 0 0.734375 -0.078125z" fill-rule="nonzero"></path><path fill="#ffff00" d="m604.22833 118.879265l229.32288 0l0 102.33071l-229.32288 0z" fill-rule="evenodd"></path><path stroke="#000000" stroke-width="1.0" stroke-linejoin="round" stroke-linecap="butt" d="m604.22833 118.879265l229.32288 0l0 102.33071l-229.32288 0z" fill-rule="evenodd"></path><path fill="#000000" d="m619.171 170.76462l0 -22.90625l10.15625 0q3.0625 0 4.65625 0.625q1.59375 0.609375 2.546875 2.171875q0.953125 1.5625 0.953125 3.453125q0 2.4375 -1.578125 4.109375q-1.578125 1.671875 -4.875 2.125q1.203125 0.578125 1.828125 1.140625q1.328125 1.21875 2.515625 3.046875l3.984375 6.234375l-3.8125 0l-3.03125 -4.765625q-1.328125 -2.0625 -2.1875 -3.15625q-0.859375 -1.09375 -1.546875 -1.53125q-0.671875 -0.4375 -1.375 -0.609375q-0.515625 -0.109375 -1.6875 -0.109375l-3.515625 0l0 10.171875l-3.03125 0zm3.03125 -12.796875l6.515625 0q2.078125 0 3.25 -0.421875q1.171875 -0.4375 1.78125 -1.375q0.609375 -0.953125 0.609375 -2.0625q0 -1.625 -1.1875 -2.671875q-1.171875 -1.046875 -3.71875 -1.046875l-7.25 0l0 7.578125zm20.09375 12.796875l0 -22.90625l16.5625 0l0 2.703125l-13.53125 0l0 7.015625l12.671875 0l0 2.6875l-12.671875 0l0 7.796875l14.0625 0l0 2.703125l-17.09375 0zm21.28125 0l0 -22.90625l8.640625 0q2.28125 0 3.484375 0.21875q1.6875 0.28125 2.828125 1.078125q1.140625 0.78125 1.828125 2.203125q0.703125 1.421875 0.703125 3.125q0 2.921875 -1.859375 4.953125q-1.859375 2.015625 -6.71875 2.015625l-5.875 0l0 9.3125l-3.03125 0zm3.03125 -12.015625l5.921875 0q2.9375 0 4.171875 -1.09375q1.234375 -1.09375 1.234375 -3.078125q0 -1.4375 -0.734375 -2.453125q-0.71875 -1.03125 -1.90625 -1.359375q-0.765625 -0.203125 -2.828125 -0.203125l-5.859375 0l0 8.1875zm18.359375 12.015625l0 -22.90625l10.15625 0q3.0625 0 4.65625 0.625q1.59375 0.609375 2.546875 2.171875q0.953125 1.5625 0.953125 3.453125q0 2.4375 -1.578125 4.109375q-1.578125 1.671875 -4.875 2.125q1.203125 0.578125 1.828125 1.140625q1.328125 1.21875 2.515625 3.046875l3.984375 6.234375l-3.8125 0l-3.03125 -4.765625q-1.328125 -2.0625 -2.1875 -3.15625q-0.859375 -1.09375 -1.546875 -1.53125q-0.671875 -0.4375 -1.375 -0.609375q-0.515625 -0.109375 -1.6875 -0.109375l-3.515625 0l0 10.171875l-3.03125 0zm3.03125 -12.796875l6.515625 0q2.078125 0 3.25 -0.421875q1.171875 -0.4375 1.78125 -1.375q0.609375 -0.953125 0.609375 -2.0625q0 -1.625 -1.1875 -2.671875q-1.171875 -1.046875 -3.71875 -1.046875l-7.25 0l0 7.578125zm19.109375 1.640625q0 -5.703125 3.0625 -8.921875q3.0625 -3.234375 7.90625 -3.234375q3.171875 0 5.71875 1.515625q2.546875 1.515625 3.875 4.234375q1.34375 2.703125 1.34375 6.140625q0 3.484375 -1.40625 6.234375q-1.40625 2.75 -3.984375 4.171875q-2.578125 1.40625 -5.5625 1.40625q-3.234375 0 -5.78125 -1.5625q-2.546875 -1.5625 -3.859375 -4.265625q-1.3125 -2.703125 -1.3125 -5.71875zm3.125 0.046875q0 4.140625 2.21875 6.53125q2.234375 2.375 5.59375 2.375q3.421875 0 5.625 -2.40625q2.21875 -2.40625 2.21875 -6.828125q0 -2.796875 -0.953125 -4.875q-0.9375 -2.09375 -2.765625 -3.234375q-1.8125 -1.15625 -4.078125 -1.15625q-3.21875 0 -5.546875 2.21875q-2.3125 2.203125 -2.3125 7.375zm22.6875 11.109375l0 -22.90625l7.890625 0q2.671875 0 4.078125 0.328125q1.96875 0.453125 3.359375 1.640625q1.8125 1.53125 2.703125 3.921875q0.90625 2.375 0.90625 5.4375q0 2.609375 -0.609375 4.625q-0.609375 2.015625 -1.5625 3.34375q-0.953125 1.3125 -2.09375 2.078125q-1.125 0.75 -2.734375 1.140625q-1.59375 0.390625 -3.671875 0.390625l-8.265625 0zm3.03125 -2.703125l4.890625 0q2.265625 0 3.546875 -0.421875q1.296875 -0.421875 2.0625 -1.1875q1.078125 -1.078125 1.671875 -2.890625q0.609375 -1.828125 0.609375 -4.421875q0 -3.59375 -1.1875 -5.515625q-1.171875 -1.9375 -2.859375 -2.59375q-1.21875 -0.46875 -3.921875 -0.46875l-4.8125 0l0 17.5zm35.109375 -20.203125l3.03125 0l0 13.234375q0 3.453125 -0.78125 5.484375q-0.78125 2.03125 -2.828125 3.3125q-2.03125 1.265625 -5.34375 1.265625q-3.21875 0 -5.265625 -1.109375q-2.046875 -1.109375 -2.921875 -3.203125q-0.875 -2.109375 -0.875 -5.75l0 -13.234375l3.03125 0l0 13.21875q0 2.984375 0.546875 4.40625q0.5625 1.40625 1.90625 2.171875q1.359375 0.765625 3.3125 0.765625q3.34375 0 4.765625 -1.515625q1.421875 -1.515625 1.421875 -5.828125l0 -13.21875zm24.421875 14.875l3.03125 0.765625q-0.953125 3.734375 -3.4375 5.703125q-2.46875 1.953125 -6.046875 1.953125q-3.703125 0 -6.03125 -1.5q-2.3125 -1.515625 -3.53125 -4.375q-1.203125 -2.859375 -1.203125 -6.140625q0 -3.578125 1.359375 -6.234375q1.375 -2.671875 3.890625 -4.046875q2.53125 -1.390625 5.5625 -1.390625q3.4375 0 5.78125 1.75q2.34375 1.75 3.265625 4.921875l-2.984375 0.703125q-0.796875 -2.5 -2.3125 -3.640625q-1.515625 -1.140625 -3.8125 -1.140625q-2.640625 0 -4.421875 1.265625q-1.765625 1.265625 -2.484375 3.40625q-0.71875 2.125 -0.71875 4.390625q0 2.921875 0.84375 5.109375q0.859375 2.171875 2.65625 3.25q1.796875 1.078125 3.890625 1.078125q2.546875 0 4.3125 -1.46875q1.765625 -1.46875 2.390625 -4.359375zm6.828125 8.03125l0 -22.90625l16.5625 0l0 2.703125l-13.53125 0l0 7.015625l12.671875 0l0 2.6875l-12.671875 0l0 7.796875l14.0625 0l0 2.703125l-17.09375 0z" fill-rule="nonzero"></path><path fill="#000000" d="m683.7372 191.04274q0 -2.734375 1.53125 -4.0625q1.265625 -1.09375 3.09375 -1.09375q2.03125 0 3.3125 1.34375q1.296875 1.328125 1.296875 3.671875q0 1.90625 -0.578125 3.0q-0.5625 1.078125 -1.65625 1.6875q-1.078125 0.59375 -2.375 0.59375q-2.0625 0 -3.34375 -1.328125q-1.28125 -1.328125 -1.28125 -3.8125zm1.71875 0q0 1.890625 0.828125 2.828125q0.828125 0.9375 2.078125 0.9375q1.25 0 2.0625 -0.9375q0.828125 -0.953125 0.828125 -2.890625q0 -1.828125 -0.828125 -2.765625q-0.828125 -0.9375 -2.0625 -0.9375q-1.25 0 -2.078125 0.9375q-0.828125 0.9375 -0.828125 2.828125zm9.688232 4.921875l0 -8.546875l-1.484375 0l0 -1.3125l1.484375 0l0 -1.046875q0 -0.984375 0.171875 -1.46875q0.234375 -0.65625 0.84375 -1.046875q0.609375 -0.40625 1.703125 -0.40625q0.703125 0 1.5625 0.15625l-0.25 1.46875q-0.515625 -0.09375 -0.984375 -0.09375q-0.765625 0 -1.078125 0.328125q-0.3125 0.3125 -0.3125 1.203125l0 0.90625l1.921875 0l0 1.3125l-1.921875 0l0 8.546875l-1.65625 0zm5.1832886 0l0 -8.546875l-1.484375 0l0 -1.3125l1.484375 0l0 -1.046875q0 -0.984375 0.171875 -1.46875q0.234375 -0.65625 0.84375 -1.046875q0.609375 -0.40625 1.703125 -0.40625q0.703125 0 1.5625 0.15625l-0.25 1.46875q-0.515625 -0.09375 -0.984375 -0.09375q-0.765625 0 -1.078125 0.328125q-0.3125 0.3125 -0.3125 1.203125l0 0.90625l1.921875 0l0 1.3125l-1.921875 0l0 8.546875l-1.65625 0zm4.1052246 -2.9375l1.65625 -0.265625q0.140625 1.0 0.765625 1.53125q0.640625 0.515625 1.78125 0.515625q1.15625 0 1.703125 -0.46875q0.5625 -0.46875 0.5625 -1.09375q0 -0.5625 -0.484375 -0.890625q-0.34375 -0.21875 -1.703125 -0.5625q-1.84375 -0.46875 -2.5625 -0.796875q-0.703125 -0.34375 -1.078125 -0.9375q-0.359375 -0.609375 -0.359375 -1.328125q0 -0.65625 0.296875 -1.21875q0.3125 -0.5625 0.828125 -0.9375q0.390625 -0.28125 1.0625 -0.484375q0.671875 -0.203125 1.4375 -0.203125q1.171875 0 2.046875 0.34375q0.875 0.328125 1.28125 0.90625q0.421875 0.5625 0.578125 1.515625l-1.625 0.21875q-0.109375 -0.75 -0.65625 -1.171875q-0.53125 -0.4375 -1.5 -0.4375q-1.15625 0 -1.640625 0.390625q-0.484375 0.375 -0.484375 0.875q0 0.328125 0.203125 0.59375q0.203125 0.265625 0.640625 0.4375q0.25 0.09375 1.46875 0.4375q1.765625 0.46875 2.46875 0.765625q0.703125 0.296875 1.09375 0.875q0.40625 0.578125 0.40625 1.4375q0 0.828125 -0.484375 1.578125q-0.484375 0.734375 -1.40625 1.140625q-0.921875 0.390625 -2.078125 0.390625q-1.921875 0 -2.9375 -0.796875q-1.0 -0.796875 -1.28125 -2.359375zm10.0 6.71875l0 -13.640625l1.53125 0l0 1.28125q0.53125 -0.75 1.203125 -1.125q0.6875 -0.375 1.640625 -0.375q1.265625 0 2.234375 0.65625q0.96875 0.640625 1.453125 1.828125q0.5 1.1875 0.5 2.59375q0 1.515625 -0.546875 2.734375q-0.546875 1.203125 -1.578125 1.84375q-1.03125 0.640625 -2.171875 0.640625q-0.84375 0 -1.515625 -0.34375q-0.65625 -0.359375 -1.078125 -0.890625l0 4.796875l-1.671875 0zm1.515625 -8.65625q0 1.90625 0.765625 2.8125q0.78125 0.90625 1.875 0.90625q1.109375 0 1.890625 -0.9375q0.796875 -0.9375 0.796875 -2.921875q0 -1.875 -0.78125 -2.8125q-0.765625 -0.9375 -1.84375 -0.9375q-1.0625 0 -1.890625 1.0q-0.8125 1.0 -0.8125 2.890625zm8.844421 4.875l0 -9.859375l1.5 0l0 1.5q0.578125 -1.046875 1.0625 -1.375q0.484375 -0.34375 1.078125 -0.34375q0.84375 0 1.71875 0.546875l-0.578125 1.546875q-0.609375 -0.359375 -1.234375 -0.359375q-0.546875 0 -0.984375 0.328125q-0.421875 0.328125 -0.609375 0.90625q-0.28125 0.890625 -0.28125 1.953125l0 5.15625l-1.671875 0zm6.2439575 -11.6875l0 -1.90625l1.671875 0l0 1.90625l-1.671875 0zm0 11.6875l0 -9.859375l1.671875 0l0 9.859375l-1.671875 0zm4.1292114 0l0 -9.859375l1.5 0l0 1.40625q1.09375 -1.625 3.140625 -1.625q0.890625 0 1.640625 0.328125q0.75 0.3125 1.109375 0.84375q0.375 0.515625 0.53125 1.21875q0.09375 0.46875 0.09375 1.625l0 6.0625l-1.671875 0l0 -6.0q0 -1.015625 -0.203125 -1.515625q-0.1875 -0.515625 -0.6875 -0.8125q-0.5 -0.296875 -1.171875 -0.296875q-1.0625 0 -1.84375 0.671875q-0.765625 0.671875 -0.765625 2.578125l0 5.375l-1.671875 0zm10.078796 0.8125l1.609375 0.25q0.109375 0.75 0.578125 1.09375q0.609375 0.453125 1.6875 0.453125q1.171875 0 1.796875 -0.46875q0.625 -0.453125 0.859375 -1.28125q0.125 -0.515625 0.109375 -2.15625q-1.09375 1.296875 -2.71875 1.296875q-2.03125 0 -3.15625 -1.46875q-1.109375 -1.46875 -1.109375 -3.515625q0 -1.40625 0.515625 -2.59375q0.515625 -1.203125 1.484375 -1.84375q0.96875 -0.65625 2.265625 -0.65625q1.75 0 2.875 1.40625l0 -1.1875l1.546875 0l0 8.515625q0 2.3125 -0.46875 3.265625q-0.46875 0.96875 -1.484375 1.515625q-1.015625 0.5625 -2.5 0.5625q-1.765625 0 -2.859375 -0.796875q-1.078125 -0.796875 -1.03125 -2.390625zm1.375 -5.921875q0 1.953125 0.765625 2.84375q0.78125 0.890625 1.9375 0.890625q1.140625 0 1.921875 -0.890625q0.78125 -0.890625 0.78125 -2.78125q0 -1.8125 -0.8125 -2.71875q-0.796875 -0.921875 -1.921875 -0.921875q-1.109375 0 -1.890625 0.90625q-0.78125 0.890625 -0.78125 2.671875z" fill-rule="nonzero"></path><path fill="#000000" fill-opacity="0.0" d="m359.94083 243.5206l-102.20474 -73.480316" fill-rule="evenodd"></path><path stroke="#000000" stroke-width="3.0" stroke-linejoin="round" stroke-linecap="butt" d="m359.94083 243.5206l-102.20474 -73.480316" fill-rule="evenodd"></path><path fill="#000000" fill-opacity="0.0" d="m430.98557 221.20998l0 -102.33071" fill-rule="evenodd"></path><path stroke="#000000" stroke-width="3.0" stroke-linejoin="round" stroke-linecap="butt" d="m430.98557 221.20998l0 -102.33071" fill-rule="evenodd"></path><path fill="#000000" fill-opacity="0.0" d="m502.0303 243.5206l102.20474 -73.480316" fill-rule="evenodd"></path><path stroke="#000000" stroke-width="3.0" stroke-linejoin="round" stroke-linecap="butt" d="m502.0303 243.5206l102.20474 -73.480316" fill-rule="evenodd"></path><path fill="#000000" fill-opacity="0.0" d="m531.458 297.3832l72.75592 47.212585" fill-rule="evenodd"></path><path stroke="#000000" stroke-width="3.0" stroke-linejoin="round" stroke-linecap="butt" d="m531.458 297.3832l72.75592 47.212585" fill-rule="evenodd"></path><path fill="#000000" fill-opacity="0.0" d="m502.0303 351.24582l85.921234 124.62991" fill-rule="evenodd"></path><path stroke="#000000" stroke-width="3.0" stroke-linejoin="round" stroke-linecap="butt" d="m502.0303 351.24582l85.921234 124.62991" fill-rule="evenodd"></path><path fill="#000000" fill-opacity="0.0" d="m359.94083 351.24582l-80.69293 124.62991" fill-rule="evenodd"></path><path stroke="#000000" stroke-width="3.0" stroke-linejoin="round" stroke-linecap="butt" d="m359.94083 351.24582l-80.69293 124.62991" fill-rule="evenodd"></path><path fill="#000000" fill-opacity="0.0" d="m330.51312 297.3832l-79.37007 66.33069" fill-rule="evenodd"></path><path stroke="#000000" stroke-width="3.0" stroke-linejoin="round" stroke-linecap="butt" d="m330.51312 297.3832l-79.37007 66.33069" fill-rule="evenodd"></path><path fill="#6aa84f" d="m604.22833 302.2546l229.32288 0l0 102.33069l-229.32288 0z" fill-rule="evenodd"></path><path stroke="#000000" stroke-width="1.0" stroke-linejoin="round" stroke-linecap="butt" d="m604.22833 302.2546l229.32288 0l0 102.33069l-229.32288 0z" fill-rule="evenodd"></path><path fill="#000000" d="m640.55383 354.13995l0 -22.90625l3.03125 0l0 9.40625l11.90625 0l0 -9.40625l3.03125 0l0 22.90625l-3.03125 0l0 -10.796875l-11.90625 0l0 10.796875l-3.03125 0zm23.078125 0l0 -22.90625l16.5625 0l0 2.703125l-13.53125 0l0 7.015625l12.671875 0l0 2.6875l-12.671875 0l0 7.796875l14.0625 0l0 2.703125l-17.09375 0zm21.328125 0l0 -22.90625l10.15625 0q3.0625 0 4.65625 0.625q1.59375 0.609375 2.546875 2.171875q0.953125 1.5625 0.953125 3.453125q0 2.4375 -1.578125 4.109375q-1.578125 1.671875 -4.875 2.125q1.203125 0.578125 1.828125 1.140625q1.328125 1.21875 2.515625 3.046875l3.984375 6.234375l-3.8125 0l-3.03125 -4.765625q-1.328125 -2.0625 -2.1875 -3.15625q-0.859375 -1.09375 -1.546875 -1.53125q-0.671875 -0.4375 -1.375 -0.609375q-0.515625 -0.109375 -1.6875 -0.109375l-3.515625 0l0 10.171875l-3.03125 0zm3.03125 -12.796875l6.515625 0q2.078125 0 3.25 -0.421875q1.171875 -0.4375 1.78125 -1.375q0.609375 -0.953125 0.609375 -2.0625q0 -1.625 -1.1875 -2.671875q-1.171875 -1.046875 -3.71875 -1.046875l-7.25 0l0 7.578125zm20.09375 12.796875l0 -22.90625l16.5625 0l0 2.703125l-13.53125 0l0 7.015625l12.671875 0l0 2.6875l-12.671875 0l0 7.796875l14.0625 0l0 2.703125l-17.09375 0zm21.28125 0l0 -22.90625l7.890625 0q2.671875 0 4.078125 0.328125q1.96875 0.453125 3.359375 1.640625q1.8125 1.53125 2.703125 3.921875q0.90625 2.375 0.90625 5.4375q0 2.609375 -0.609375 4.625q-0.609375 2.015625 -1.5625 3.34375q-0.953125 1.3125 -2.09375 2.078125q-1.125 0.75 -2.734375 1.140625q-1.59375 0.390625 -3.671875 0.390625l-8.265625 0zm3.03125 -2.703125l4.890625 0q2.265625 0 3.546875 -0.421875q1.296875 -0.421875 2.0625 -1.1875q1.078125 -1.078125 1.671875 -2.890625q0.609375 -1.828125 0.609375 -4.421875q0 -3.59375 -1.1875 -5.515625q-1.171875 -1.9375 -2.859375 -2.59375q-1.21875 -0.46875 -3.921875 -0.46875l-4.8125 0l0 17.5zm20.59375 2.703125l0 -22.90625l3.03125 0l0 22.90625l-3.03125 0zm14.203125 0l0 -20.203125l-7.546875 0l0 -2.703125l18.15625 0l0 2.703125l-7.578125 0l0 20.203125l-3.03125 0zm20.171875 0l0 -9.703125l-8.828125 -13.203125l3.6875 0l4.515625 6.90625q1.25 1.9375 2.328125 3.875q1.03125 -1.796875 2.5 -4.046875l4.4375 -6.734375l3.53125 0l-9.140625 13.203125l0 9.703125l-3.03125 0z" fill-rule="nonzero"></path><path fill="#000000" d="m688.9296 374.41806q0 -2.734375 1.53125 -4.0625q1.265625 -1.09375 3.09375 -1.09375q2.03125 0 3.3125 1.34375q1.296875 1.328125 1.296875 3.671875q0 1.90625 -0.578125 3.0q-0.5625 1.078125 -1.65625 1.6875q-1.078125 0.59375 -2.375 0.59375q-2.0625 0 -3.34375 -1.328125q-1.28125 -1.328125 -1.28125 -3.8125zm1.71875 0q0 1.890625 0.828125 2.828125q0.828125 0.9375 2.078125 0.9375q1.25 0 2.0625 -0.9375q0.828125 -0.953125 0.828125 -2.890625q0 -1.828125 -0.828125 -2.765625q-0.828125 -0.9375 -2.0625 -0.9375q-1.25 0 -2.078125 0.9375q-0.828125 0.9375 -0.828125 2.828125zm9.688232 4.921875l0 -8.546875l-1.484375 0l0 -1.3125l1.484375 0l0 -1.046875q0 -0.984375 0.171875 -1.46875q0.234375 -0.65625 0.84375 -1.046875q0.609375 -0.40625 1.703125 -0.40625q0.703125 0 1.5625 0.15625l-0.25 1.46875q-0.515625 -0.09375 -0.984375 -0.09375q-0.765625 0 -1.078125 0.328125q-0.3125 0.3125 -0.3125 1.203125l0 0.90625l1.921875 0l0 1.3125l-1.921875 0l0 8.546875l-1.65625 0zm13.616577 -1.5l0.234375 1.484375q-0.703125 0.140625 -1.265625 0.140625q-0.90625 0 -1.40625 -0.28125q-0.5 -0.296875 -0.703125 -0.75q-0.203125 -0.46875 -0.203125 -1.984375l0 -5.65625l-1.234375 0l0 -1.3125l1.234375 0l0 -2.4375l1.65625 -1.0l0 3.4375l1.6875 0l0 1.3125l-1.6875 0l0 5.75q0 0.71875 0.078125 0.921875q0.09375 0.203125 0.296875 0.328125q0.203125 0.125 0.578125 0.125q0.265625 0 0.734375 -0.078125zm1.5114136 1.5l0 -9.859375l1.5 0l0 1.5q0.578125 -1.046875 1.0625 -1.375q0.484375 -0.34375 1.078125 -0.34375q0.84375 0 1.71875 0.546875l-0.578125 1.546875q-0.609375 -0.359375 -1.234375 -0.359375q-0.546875 0 -0.984375 0.328125q-0.421875 0.328125 -0.609375 0.90625q-0.28125 0.890625 -0.28125 1.953125l0 5.15625l-1.671875 0zm12.6658325 -1.21875q-0.9375 0.796875 -1.796875 1.125q-0.859375 0.3125 -1.84375 0.3125q-1.609375 0 -2.484375 -0.78125q-0.875 -0.796875 -0.875 -2.03125q0 -0.734375 0.328125 -1.328125q0.328125 -0.59375 0.859375 -0.953125q0.53125 -0.359375 1.203125 -0.546875q0.5 -0.140625 1.484375 -0.25q2.03125 -0.25 2.984375 -0.578125q0 -0.34375 0 -0.4375q0 -1.015625 -0.46875 -1.4375q-0.640625 -0.5625 -1.90625 -0.5625q-1.171875 0 -1.734375 0.40625q-0.5625 0.40625 -0.828125 1.46875l-1.640625 -0.234375q0.234375 -1.046875 0.734375 -1.6875q0.515625 -0.640625 1.46875 -0.984375q0.96875 -0.359375 2.25 -0.359375q1.265625 0 2.046875 0.296875q0.78125 0.296875 1.15625 0.75q0.375 0.453125 0.515625 1.140625q0.09375 0.421875 0.09375 1.53125l0 2.234375q0 2.328125 0.09375 2.953125q0.109375 0.609375 0.4375 1.171875l-1.75 0q-0.265625 -0.515625 -0.328125 -1.21875zm-0.140625 -3.71875q-0.90625 0.359375 -2.734375 0.625q-1.03125 0.140625 -1.453125 0.328125q-0.421875 0.1875 -0.65625 0.546875q-0.234375 0.359375 -0.234375 0.796875q0 0.671875 0.5 1.125q0.515625 0.4375 1.484375 0.4375q0.96875 0 1.71875 -0.421875q0.75 -0.4375 1.109375 -1.15625q0.265625 -0.578125 0.265625 -1.671875l0 -0.609375zm4.0944824 -6.75l0 -1.90625l1.671875 0l0 1.90625l-1.671875 0zm0 11.6875l0 -9.859375l1.671875 0l0 9.859375l-1.671875 0zm7.7854004 -1.5l0.234375 1.484375q-0.703125 0.140625 -1.265625 0.140625q-0.90625 0 -1.40625 -0.28125q-0.5 -0.296875 -0.703125 -0.75q-0.203125 -0.46875 -0.203125 -1.984375l0 -5.65625l-1.234375 0l0 -1.3125l1.234375 0l0 -2.4375l1.65625 -1.0l0 3.4375l1.6875 0l0 1.3125l-1.6875 0l0 5.75q0 0.71875 0.078125 0.921875q0.09375 0.203125 0.296875 0.328125q0.203125 0.125 0.578125 0.125q0.265625 0 0.734375 -0.078125zm0.8552246 -1.4375l1.65625 -0.265625q0.140625 1.0 0.765625 1.53125q0.640625 0.515625 1.78125 0.515625q1.15625 0 1.703125 -0.46875q0.5625 -0.46875 0.5625 -1.09375q0 -0.5625 -0.484375 -0.890625q-0.34375 -0.21875 -1.703125 -0.5625q-1.84375 -0.46875 -2.5625 -0.796875q-0.703125 -0.34375 -1.078125 -0.9375q-0.359375 -0.609375 -0.359375 -1.328125q0 -0.65625 0.296875 -1.21875q0.3125 -0.5625 0.828125 -0.9375q0.390625 -0.28125 1.0625 -0.484375q0.671875 -0.203125 1.4375 -0.203125q1.171875 0 2.046875 0.34375q0.875 0.328125 1.28125 0.90625q0.421875 0.5625 0.578125 1.515625l-1.625 0.21875q-0.109375 -0.75 -0.65625 -1.171875q-0.53125 -0.4375 -1.5 -0.4375q-1.15625 0 -1.640625 0.390625q-0.484375 0.375 -0.484375 0.875q0 0.328125 0.203125 0.59375q0.203125 0.265625 0.640625 0.4375q0.25 0.09375 1.46875 0.4375q1.765625 0.46875 2.46875 0.765625q0.703125 0.296875 1.09375 0.875q0.40625 0.578125 0.40625 1.4375q0 0.828125 -0.484375 1.578125q-0.484375 0.734375 -1.40625 1.140625q-0.921875 0.390625 -2.078125 0.390625q-1.921875 0 -2.9375 -0.796875q-1.0 -0.796875 -1.28125 -2.359375z" fill-rule="nonzero"></path><path fill="#3c78d8" d="m459.92126 475.87534l252.72443 0l0 102.33072l-252.72443 0z" fill-rule="evenodd"></path><path stroke="#000000" stroke-width="1.0" stroke-linejoin="round" stroke-linecap="butt" d="m459.92126 475.87534l252.72443 0l0 102.33072l-252.72443 0z" fill-rule="evenodd"></path><path fill="#000000" d="m471.49442 527.7607l0 -22.90625l3.03125 0l0 9.40625l11.90625 0l0 -9.40625l3.03125 0l0 22.90625l-3.03125 0l0 -10.796875l-11.90625 0l0 10.796875l-3.03125 0zm22.09375 -11.15625q0 -5.703125 3.0625 -8.921875q3.0625 -3.234375 7.90625 -3.234375q3.171875 0 5.71875 1.515625q2.5468445 1.515625 3.8749695 4.234375q1.34375 2.703125 1.34375 6.140625q0 3.484375 -1.40625 6.234375q-1.40625 2.75 -3.9843445 4.171875q-2.578125 1.40625 -5.5625 1.40625q-3.234375 0 -5.78125 -1.5625q-2.546875 -1.5625 -3.859375 -4.265625q-1.3125 -2.703125 -1.3125 -5.71875zm3.125 0.046875q0 4.140625 2.21875 6.53125q2.234375 2.375 5.59375 2.375q3.421875 0 5.625 -2.40625q2.2187195 -2.40625 2.2187195 -6.828125q0 -2.796875 -0.9530945 -4.875q-0.9375 -2.09375 -2.765625 -3.234375q-1.8125 -1.15625 -4.078125 -1.15625q-3.21875 0 -5.546875 2.21875q-2.3125 2.203125 -2.3125 7.375zm22.59372 11.109375l0 -22.90625l4.5625 0l5.421875 16.21875q0.75 2.265625 1.09375 3.390625q0.390625 -1.25 1.21875 -3.671875l5.484375 -15.9375l4.078125 0l0 22.90625l-2.921875 0l0 -19.171875l-6.65625 19.171875l-2.734375 0l-6.625 -19.5l0 19.5l-2.921875 0zm26.8125 0l0 -22.90625l16.5625 0l0 2.703125l-13.53125 0l0 7.015625l12.671875 0l0 2.6875l-12.671875 0l0 7.796875l14.0625 0l0 2.703125l-17.09375 0zm20.359375 -11.15625q0 -5.703125 3.0625 -8.921875q3.0625 -3.234375 7.90625 -3.234375q3.171875 0 5.71875 1.515625q2.546875 1.515625 3.875 4.234375q1.34375 2.703125 1.34375 6.140625q0 3.484375 -1.40625 6.234375q-1.40625 2.75 -3.984375 4.171875q-2.578125 1.40625 -5.5625 1.40625q-3.234375 0 -5.78125 -1.5625q-2.546875 -1.5625 -3.859375 -4.265625q-1.3125 -2.703125 -1.3125 -5.71875zm3.125 0.046875q0 4.140625 2.21875 6.53125q2.234375 2.375 5.59375 2.375q3.421875 0 5.625 -2.40625q2.21875 -2.40625 2.21875 -6.828125q0 -2.796875 -0.953125 -4.875q-0.9375 -2.09375 -2.765625 -3.234375q-1.8125 -1.15625 -4.078125 -1.15625q-3.21875 0 -5.546875 2.21875q-2.3125 2.203125 -2.3125 7.375zm21.65625 3.75l2.859375 -0.25q0.203125 1.71875 0.9375 2.828125q0.75 1.09375 2.3125 1.78125q1.5625 0.671875 3.515625 0.671875q1.734375 0 3.0625 -0.515625q1.328125 -0.515625 1.96875 -1.40625q0.65625 -0.90625 0.65625 -1.96875q0 -1.078125 -0.625 -1.875q-0.625 -0.8125 -2.0625 -1.359375q-0.921875 -0.359375 -4.078125 -1.109375q-3.15625 -0.765625 -4.421875 -1.4375q-1.640625 -0.859375 -2.453125 -2.125q-0.796875 -1.28125 -0.796875 -2.859375q0 -1.734375 0.984375 -3.234375q0.984375 -1.515625 2.875 -2.296875q1.890625 -0.78125 4.203125 -0.78125q2.546875 0 4.484375 0.828125q1.953125 0.8125 3.0 2.40625q1.046875 1.59375 1.125 3.609375l-2.90625 0.21875q-0.234375 -2.171875 -1.59375 -3.28125q-1.34375 -1.109375 -3.984375 -1.109375q-2.75 0 -4.015625 1.015625q-1.25 1.0 -1.25 2.421875q0 1.234375 0.890625 2.03125q0.875 0.796875 4.5625 1.640625q3.703125 0.828125 5.078125 1.453125q2.0 0.921875 2.953125 2.34375q0.953125 1.40625 0.953125 3.25q0 1.828125 -1.046875 3.453125q-1.046875 1.609375 -3.015625 2.515625q-1.953125 0.890625 -4.40625 0.890625q-3.109375 0 -5.21875 -0.90625q-2.09375 -0.90625 -3.296875 -2.71875q-1.1875 -1.828125 -1.25 -4.125zm28.203125 7.359375l0 -20.203125l-7.546875 0l0 -2.703125l18.15625 0l0 2.703125l-7.578125 0l0 20.203125l-3.03125 0zm11.203125 0l8.796875 -22.90625l3.265625 0l9.375 22.90625l-3.453125 0l-2.671875 -6.9375l-9.578125 0l-2.515625 6.9375l-3.21875 0zm6.609375 -9.40625l7.765625 0l-2.390625 -6.34375q-1.09375 -2.890625 -1.625 -4.75q-0.4375 2.203125 -1.234375 4.375l-2.515625 6.71875zm16.21875 2.046875l2.859375 -0.25q0.203125 1.71875 0.9375 2.828125q0.75 1.09375 2.3125 1.78125q1.5625 0.671875 3.515625 0.671875q1.734375 0 3.0625 -0.515625q1.328125 -0.515625 1.96875 -1.40625q0.65625 -0.90625 0.65625 -1.96875q0 -1.078125 -0.625 -1.875q-0.625 -0.8125 -2.0625 -1.359375q-0.921875 -0.359375 -4.078125 -1.109375q-3.15625 -0.765625 -4.421875 -1.4375q-1.640625 -0.859375 -2.453125 -2.125q-0.796875 -1.28125 -0.796875 -2.859375q0 -1.734375 0.984375 -3.234375q0.984375 -1.515625 2.875 -2.296875q1.890625 -0.78125 4.203125 -0.78125q2.546875 0 4.484375 0.828125q1.953125 0.8125 3.0 2.40625q1.046875 1.59375 1.125 3.609375l-2.90625 0.21875q-0.234375 -2.171875 -1.59375 -3.28125q-1.34375 -1.109375 -3.984375 -1.109375q-2.75 0 -4.015625 1.015625q-1.25 1.0 -1.25 2.421875q0 1.234375 0.890625 2.03125q0.875 0.796875 4.5625 1.640625q3.703125 0.828125 5.078125 1.453125q2.0 0.921875 2.953125 2.34375q0.953125 1.40625 0.953125 3.25q0 1.828125 -1.046875 3.453125q-1.046875 1.609375 -3.015625 2.515625q-1.953125 0.890625 -4.40625 0.890625q-3.109375 0 -5.21875 -0.90625q-2.09375 -0.90625 -3.296875 -2.71875q-1.1875 -1.828125 -1.25 -4.125zm22.890625 7.359375l0 -22.90625l3.03125 0l0 22.90625l-3.03125 0zm7.34375 -7.359375l2.859375 -0.25q0.203125 1.71875 0.9375 2.828125q0.75 1.09375 2.3125 1.78125q1.5625 0.671875 3.515625 0.671875q1.734375 0 3.0625 -0.515625q1.328125 -0.515625 1.96875 -1.40625q0.65625 -0.90625 0.65625 -1.96875q0 -1.078125 -0.625 -1.875q-0.625 -0.8125 -2.0625 -1.359375q-0.921875 -0.359375 -4.078125 -1.109375q-3.15625 -0.765625 -4.421875 -1.4375q-1.640625 -0.859375 -2.453125 -2.125q-0.796875 -1.28125 -0.796875 -2.859375q0 -1.734375 0.984375 -3.234375q0.984375 -1.515625 2.875 -2.296875q1.890625 -0.78125 4.203125 -0.78125q2.546875 0 4.484375 0.828125q1.953125 0.8125 3.0 2.40625q1.046875 1.59375 1.125 3.609375l-2.90625 0.21875q-0.234375 -2.171875 -1.59375 -3.28125q-1.34375 -1.109375 -3.984375 -1.109375q-2.75 0 -4.015625 1.015625q-1.25 1.0 -1.25 2.421875q0 1.234375 0.890625 2.03125q0.875 0.796875 4.5625 1.640625q3.703125 0.828125 5.078125 1.453125q2.0 0.921875 2.953125 2.34375q0.953125 1.40625 0.953125 3.25q0 1.828125 -1.046875 3.453125q-1.046875 1.609375 -3.015625 2.515625q-1.953125 0.890625 -4.40625 0.890625q-3.109375 0 -5.21875 -0.90625q-2.09375 -0.90625 -3.296875 -2.71875q-1.1875 -1.828125 -1.25 -4.125z" fill-rule="nonzero"></path><path fill="#000000" d="m494.04037 550.0232l1.65625 -0.265625q0.140625 1.0 0.765625 1.53125q0.640625 0.515625 1.78125 0.515625q1.15625 0 1.703125 -0.46875q0.5625 -0.46875 0.5625 -1.09375q0 -0.5625 -0.484375 -0.890625q-0.34375 -0.21875 -1.703125 -0.5625q-1.84375 -0.46875 -2.5625 -0.796875q-0.703125 -0.34375 -1.078125 -0.9375q-0.359375 -0.609375 -0.359375 -1.328125q0 -0.65625 0.296875 -1.21875q0.3125 -0.5625 0.828125 -0.9375q0.390625 -0.28125 1.0625 -0.484375q0.671875 -0.203125 1.4375 -0.203125q1.171875 0 2.046875 0.34375q0.875 0.328125 1.28125 0.90625q0.421875 0.5625 0.578125 1.515625l-1.625 0.21875q-0.109375 -0.75 -0.65625 -1.171875q-0.53125 -0.4375 -1.5 -0.4375q-1.15625 0 -1.640625 0.390625q-0.484375 0.375 -0.484375 0.875q0 0.328125 0.203125 0.59375q0.203125 0.265625 0.640625 0.4375q0.25 0.09375 1.46875 0.4375q1.765625 0.46875 2.46875 0.765625q0.703125 0.296875 1.09375 0.875q0.40625 0.578125 0.40625 1.4375q0 0.828125 -0.484375 1.578125q-0.484375 0.734375 -1.40625 1.140625q-0.921875 0.390625 -2.078125 0.390625q-1.921875 0 -2.9375 -0.796875q-1.0 -0.796875 -1.28125 -2.359375zm13.65625 1.4375l0.234375 1.484375q-0.703125 0.140625 -1.265625 0.140625q-0.90625 0 -1.40625 -0.28125q-0.5 -0.296875 -0.703125 -0.75q-0.203125 -0.46875 -0.203125 -1.984375l0 -5.65625l-1.234375 0l0 -1.3125l1.234375 0l0 -2.4375l1.65625 -1.0l0 3.4375l1.6875 0l0 1.3125l-1.6875 0l0 5.75q0 0.71875 0.078125 0.921875q0.09375 0.203125 0.296875 0.328125q0.203125 0.125 0.578125 0.125q0.265625 0 0.734375 -0.078125zm7.964569 0.28125q-0.9375 0.796875 -1.796875 1.125q-0.859375 0.3125 -1.84375 0.3125q-1.6094055 0 -2.4844055 -0.78125q-0.875 -0.796875 -0.875 -2.03125q0 -0.734375 0.328125 -1.328125q0.328125 -0.59375 0.859375 -0.953125q0.53125 -0.359375 1.203125 -0.546875q0.5 -0.140625 1.4844055 -0.25q2.03125 -0.25 2.984375 -0.578125q0 -0.34375 0 -0.4375q0 -1.015625 -0.46875 -1.4375q-0.640625 -0.5625 -1.90625 -0.5625q-1.1719055 0 -1.7344055 0.40625q-0.5625 0.40625 -0.828125 1.46875l-1.640625 -0.234375q0.234375 -1.046875 0.734375 -1.6875q0.515625 -0.640625 1.46875 -0.984375q0.9687805 -0.359375 2.2500305 -0.359375q1.265625 0 2.046875 0.296875q0.78125 0.296875 1.15625 0.75q0.375 0.453125 0.515625 1.140625q0.09375 0.421875 0.09375 1.53125l0 2.234375q0 2.328125 0.09375 2.953125q0.109375 0.609375 0.4375 1.171875l-1.75 0q-0.265625 -0.515625 -0.328125 -1.21875zm-0.140625 -3.71875q-0.90625 0.359375 -2.734375 0.625q-1.0312805 0.140625 -1.4531555 0.328125q-0.421875 0.1875 -0.65625 0.546875q-0.234375 0.359375 -0.234375 0.796875q0 0.671875 0.5 1.125q0.515625 0.4375 1.4844055 0.4375q0.96875 0 1.71875 -0.421875q0.75 -0.4375 1.109375 -1.15625q0.265625 -0.578125 0.265625 -1.671875l0 -0.609375zm5.6256714 4.9375l-1.546875 0l0 -13.59375l1.65625 0l0 4.84375q1.0625 -1.328125 2.703125 -1.328125q0.90625 0 1.71875 0.375q0.8125 0.359375 1.328125 1.03125q0.53125 0.65625 0.828125 1.59375q0.296875 0.9375 0.296875 2.0q0 2.53125 -1.25 3.921875q-1.25 1.375 -3.0 1.375q-1.75 0 -2.734375 -1.453125l0 1.234375zm-0.015625 -5.0q0 1.765625 0.46875 2.5625q0.796875 1.28125 2.140625 1.28125q1.09375 0 1.890625 -0.9375q0.796875 -0.953125 0.796875 -2.84375q0 -1.921875 -0.765625 -2.84375q-0.765625 -0.921875 -1.84375 -0.921875q-1.09375 0 -1.890625 0.953125q-0.796875 0.953125 -0.796875 2.75zm8.813232 5.0l0 -13.59375l1.671875 0l0 13.59375l-1.671875 0zm10.926086 -3.171875l1.71875 0.21875q-0.40625 1.5 -1.515625 2.34375q-1.09375 0.828125 -2.8125 0.828125q-2.15625 0 -3.421875 -1.328125q-1.265625 -1.328125 -1.265625 -3.734375q0 -2.484375 1.265625 -3.859375q1.28125 -1.375 3.328125 -1.375q1.984375 0 3.234375 1.34375q1.25 1.34375 1.25 3.796875q0 0.140625 -0.015625 0.4375l-7.34375 0q0.09375 1.625 0.921875 2.484375q0.828125 0.859375 2.0625 0.859375q0.90625 0 1.546875 -0.46875q0.65625 -0.484375 1.046875 -1.546875zm-5.484375 -2.703125l5.5 0q-0.109375 -1.234375 -0.625 -1.859375q-0.796875 -0.96875 -2.078125 -0.96875q-1.140625 0 -1.9375 0.78125q-0.78125 0.765625 -0.859375 2.046875zm14.309021 -5.8125l0 -1.90625l1.671875 0l0 1.90625l-1.671875 0zm0 11.6875l0 -9.859375l1.671875 0l0 9.859375l-1.671875 0zm4.1292114 0l0 -9.859375l1.5 0l0 1.40625q1.09375 -1.625 3.140625 -1.625q0.890625 0 1.640625 0.328125q0.75 0.3125 1.109375 0.84375q0.375 0.515625 0.53125 1.21875q0.09375 0.46875 0.09375 1.625l0 6.0625l-1.671875 0l0 -6.0q0 -1.015625 -0.203125 -1.515625q-0.1875 -0.515625 -0.6875 -0.8125q-0.5 -0.296875 -1.171875 -0.296875q-1.0625 0 -1.84375 0.671875q-0.765625 0.671875 -0.765625 2.578125l0 5.375l-1.671875 0zm10.375671 0l0 -9.859375l1.5 0l0 1.40625q1.09375 -1.625 3.140625 -1.625q0.890625 0 1.640625 0.328125q0.75 0.3125 1.109375 0.84375q0.375 0.515625 0.53125 1.21875q0.09375 0.46875 0.09375 1.625l0 6.0625l-1.671875 0l0 -6.0q0 -1.015625 -0.203125 -1.515625q-0.1875 -0.515625 -0.6875 -0.8125q-0.5 -0.296875 -1.171875 -0.296875q-1.0625 0 -1.84375 0.671875q-0.765625 0.671875 -0.765625 2.578125l0 5.375l-1.671875 0zm17.125732 -3.171875l1.71875 0.21875q-0.40625 1.5 -1.515625 2.34375q-1.09375 0.828125 -2.8125 0.828125q-2.15625 0 -3.421875 -1.328125q-1.265625 -1.328125 -1.265625 -3.734375q0 -2.484375 1.265625 -3.859375q1.28125 -1.375 3.328125 -1.375q1.984375 0 3.234375 1.34375q1.25 1.34375 1.25 3.796875q0 0.140625 -0.015625 0.4375l-7.34375 0q0.09375 1.625 0.921875 2.484375q0.828125 0.859375 2.0625 0.859375q0.90625 0 1.546875 -0.46875q0.65625 -0.484375 1.046875 -1.546875zm-5.484375 -2.703125l5.5 0q-0.109375 -1.234375 -0.625 -1.859375q-0.796875 -0.96875 -2.078125 -0.96875q-1.140625 0 -1.9375 0.78125q-0.78125 0.765625 -0.859375 2.046875zm9.094482 5.875l0 -9.859375l1.5 0l0 1.5q0.578125 -1.046875 1.0625 -1.375q0.484375 -0.34375 1.078125 -0.34375q0.84375 0 1.71875 0.546875l-0.578125 1.546875q-0.609375 -0.359375 -1.234375 -0.359375q-0.546875 0 -0.984375 0.328125q-0.421875 0.328125 -0.609375 0.90625q-0.28125 0.890625 -0.28125 1.953125l0 5.15625l-1.671875 0zm17.849121 -3.609375l1.640625 0.21875q-0.265625 1.6875 -1.375 2.65625q-1.109375 0.953125 -2.734375 0.953125q-2.015625 0 -3.25 -1.3125q-1.21875 -1.328125 -1.21875 -3.796875q0 -1.59375 0.515625 -2.78125q0.53125 -1.203125 1.609375 -1.796875q1.09375 -0.609375 2.359375 -0.609375q1.609375 0 2.625 0.8125q1.015625 0.8125 1.3125 2.3125l-1.625 0.25q-0.234375 -1.0 -0.828125 -1.5q-0.59375 -0.5 -1.421875 -0.5q-1.265625 0 -2.0625 0.90625q-0.78125 0.90625 -0.78125 2.859375q0 1.984375 0.765625 2.890625q0.765625 0.890625 1.984375 0.890625q0.984375 0 1.640625 -0.59375q0.65625 -0.609375 0.84375 -1.859375zm2.265625 -1.3125q0 -2.734375 1.53125 -4.0625q1.265625 -1.09375 3.09375 -1.09375q2.03125 0 3.3125 1.34375q1.296875 1.328125 1.296875 3.671875q0 1.90625 -0.578125 3.0q-0.5625 1.078125 -1.65625 1.6875q-1.078125 0.59375 -2.375 0.59375q-2.0625 0 -3.34375 -1.328125q-1.28125 -1.328125 -1.28125 -3.8125zm1.71875 0q0 1.890625 0.828125 2.828125q0.828125 0.9375 2.078125 0.9375q1.25 0 2.0625 -0.9375q0.828125 -0.953125 0.828125 -2.890625q0 -1.828125 -0.828125 -2.765625q-0.828125 -0.9375 -2.0625 -0.9375q-1.25 0 -2.078125 0.9375q-0.828125 0.9375 -0.828125 2.828125zm9.281921 4.921875l0 -9.859375l1.5 0l0 1.40625q1.09375 -1.625 3.140625 -1.625q0.890625 0 1.640625 0.328125q0.75 0.3125 1.109375 0.84375q0.375 0.515625 0.53125 1.21875q0.09375 0.46875 0.09375 1.625l0 6.0625l-1.671875 0l0 -6.0q0 -1.015625 -0.203125 -1.515625q-0.1875 -0.515625 -0.6875 -0.8125q-0.5 -0.296875 -1.171875 -0.296875q-1.0625 0 -1.84375 0.671875q-0.765625 0.671875 -0.765625 2.578125l0 5.375l-1.671875 0zm16.766357 0l0 -1.25q-0.9375 1.46875 -2.75 1.46875q-1.171875 0 -2.171875 -0.640625q-0.984375 -0.65625 -1.53125 -1.8125q-0.53125 -1.171875 -0.53125 -2.6875q0 -1.46875 0.484375 -2.671875q0.5 -1.203125 1.46875 -1.84375q0.984375 -0.640625 2.203125 -0.640625q0.890625 0 1.578125 0.375q0.703125 0.375 1.140625 0.984375l0 -4.875l1.65625 0l0 13.59375l-1.546875 0zm-5.28125 -4.921875q0 1.890625 0.796875 2.828125q0.8125 0.9375 1.890625 0.9375q1.09375 0 1.859375 -0.890625q0.765625 -0.890625 0.765625 -2.734375q0 -2.015625 -0.78125 -2.953125q-0.78125 -0.953125 -1.921875 -0.953125q-1.109375 0 -1.859375 0.90625q-0.75 0.90625 -0.75 2.859375zm9.281982 -6.765625l0 -1.90625l1.671875 0l0 1.90625l-1.671875 0zm0 11.6875l0 -9.859375l1.671875 0l0 9.859375l-1.671875 0zm7.7854614 -1.5l0.234375 1.484375q-0.703125 0.140625 -1.265625 0.140625q-0.90625 0 -1.40625 -0.28125q-0.5 -0.296875 -0.703125 -0.75q-0.203125 -0.46875 -0.203125 -1.984375l0 -5.65625l-1.234375 0l0 -1.3125l1.234375 0l0 -2.4375l1.65625 -1.0l0 3.4375l1.6875 0l0 1.3125l-1.6875 0l0 5.75q0 0.71875 0.078125 0.921875q0.09375 0.203125 0.296875 0.328125q0.203125 0.125 0.578125 0.125q0.265625 0 0.734375 -0.078125zm1.5426636 -10.1875l0 -1.90625l1.671875 0l0 1.90625l-1.671875 0zm0 11.6875l0 -9.859375l1.671875 0l0 9.859375l-1.671875 0zm3.5042114 -4.921875q0 -2.734375 1.53125 -4.0625q1.265625 -1.09375 3.09375 -1.09375q2.03125 0 3.3125 1.34375q1.296875 1.328125 1.296875 3.671875q0 1.90625 -0.578125 3.0q-0.5625 1.078125 -1.65625 1.6875q-1.078125 0.59375 -2.375 0.59375q-2.0625 0 -3.34375 -1.328125q-1.28125 -1.328125 -1.28125 -3.8125zm1.71875 0q0 1.890625 0.828125 2.828125q0.828125 0.9375 2.078125 0.9375q1.25 0 2.0625 -0.9375q0.828125 -0.953125 0.828125 -2.890625q0 -1.828125 -0.828125 -2.765625q-0.828125 -0.9375 -2.0625 -0.9375q-1.25 0 -2.078125 0.9375q-0.828125 0.9375 -0.828125 2.828125zm9.281921 4.921875l0 -9.859375l1.5 0l0 1.40625q1.09375 -1.625 3.140625 -1.625q0.890625 0 1.640625 0.328125q0.75 0.3125 1.109375 0.84375q0.375 0.515625 0.53125 1.21875q0.09375 0.46875 0.09375 1.625l0 6.0625l-1.671875 0l0 -6.0q0 -1.015625 -0.203125 -1.515625q-0.1875 -0.515625 -0.6875 -0.8125q-0.5 -0.296875 -1.171875 -0.296875q-1.0625 0 -1.84375 0.671875q-0.765625 0.671875 -0.765625 2.578125l0 5.375l-1.671875 0zm9.703857 -2.9375l1.65625 -0.265625q0.140625 1.0 0.765625 1.53125q0.640625 0.515625 1.78125 0.515625q1.15625 0 1.703125 -0.46875q0.5625 -0.46875 0.5625 -1.09375q0 -0.5625 -0.484375 -0.890625q-0.34375 -0.21875 -1.703125 -0.5625q-1.84375 -0.46875 -2.5625 -0.796875q-0.703125 -0.34375 -1.078125 -0.9375q-0.359375 -0.609375 -0.359375 -1.328125q0 -0.65625 0.296875 -1.21875q0.3125 -0.5625 0.828125 -0.9375q0.390625 -0.28125 1.0625 -0.484375q0.671875 -0.203125 1.4375 -0.203125q1.171875 0 2.046875 0.34375q0.875 0.328125 1.28125 0.90625q0.421875 0.5625 0.578125 1.515625l-1.625 0.21875q-0.109375 -0.75 -0.65625 -1.171875q-0.53125 -0.4375 -1.5 -0.4375q-1.15625 0 -1.640625 0.390625q-0.484375 0.375 -0.484375 0.875q0 0.328125 0.203125 0.59375q0.203125 0.265625 0.640625 0.4375q0.25 0.09375 1.46875 0.4375q1.765625 0.46875 2.46875 0.765625q0.703125 0.296875 1.09375 0.875q0.40625 0.578125 0.40625 1.4375q0 0.828125 -0.484375 1.578125q-0.484375 0.734375 -1.40625 1.140625q-0.921875 0.390625 -2.078125 0.390625q-1.921875 0 -2.9375 -0.796875q-1.0 -0.796875 -1.28125 -2.359375z" fill-rule="nonzero"></path></g></svg>

